<svg xmlns="http://www.w3.org/2000/svg" xmlns:xlink="http://www.w3.org/1999/xlink" version="1.1" x="0px" y="0px" viewBox="0 0 100 125" style="enable-background:new 0 0 100 100;" xml:space="preserve"><style type="text/css">
	.st0{fill:none;stroke:#000000;stroke-width:2;stroke-linecap:round;stroke-linejoin:round;stroke-miterlimit:10;}
</style><path d="M-541-685.3c-0.1-0.5-0.5-0.9-1-0.9h-5v-3.3c0-3.5-2.8-6.3-6.3-6.3s-6.3,2.8-6.3,6.3v3.3h-5c-0.5,0-0.9,0.4-1,0.9l-4.5,31.4  c0,0.3,0,0.6,0.2,0.8c0.2,0.2,0.5,0.3,0.8,0.3h31.4c0.3,0,0.6-0.1,0.8-0.3c0.2-0.2,0.3-0.5,0.2-0.8L-541-685.3z M-557.4-689.5  c0-2.4,1.9-4.3,4.3-4.3s4.3,1.9,4.3,4.3v3.3h-8.5V-689.5z M-567.7-654.7l4.2-29.4h4.1v2.9c-1.2,0.4-2.1,1.5-2.1,2.8c0,1.6,1.3,3,3,3  s3-1.3,3-3c0-1.3-0.8-2.3-1.9-2.8v-3h8.5v2.9c-1.1,0.4-2,1.5-2,2.8c0,1.6,1.3,3,3,3s3-1.3,3-3c0-1.3-0.8-2.4-2-2.8v-2.9h4.1  l4.2,29.4H-567.7z"/><g><path d="M-411.7-693.9h-35.9c-1.7,0-3,1.3-3,3v35.9c0,1.7,1.3,3,3,3h35.9c1.7,0,3-1.3,3-3v-35.9   C-408.7-692.5-410-693.9-411.7-693.9z M-410.7-654.9c0,0.6-0.4,1-1,1h-35.9c-0.6,0-1-0.4-1-1v-35.9c0-0.6,0.4-1,1-1h35.9   c0.6,0,1,0.4,1,1V-654.9z"/><path d="M-429.7-688.7c-8.7,0-15.8,7.1-15.8,15.8c0,8.7,7.1,15.8,15.8,15.8c8.7,0,15.8-7.1,15.8-15.8   C-413.9-681.6-421-688.7-429.7-688.7z M-429.7-659.1c-7.6,0-13.8-6.2-13.8-13.8s6.2-13.8,13.8-13.8s13.8,6.2,13.8,13.8   S-422.1-659.1-429.7-659.1z"/><path d="M-423.1-673.9h-5.6v-8.1c0-0.6-0.4-1-1-1s-1,0.4-1,1v9.1c0,0.6,0.4,1,1,1h6.6c0.6,0,1-0.4,1-1S-422.6-673.9-423.1-673.9z"/></g><g><path d="M-292-686.6h-31.7c-1.7,0-3,1.3-3,3v21.9c0,1.7,1.3,3,3,3h18.9l8.2,8.2c0.2,0.2,0.4,0.3,0.7,0.3c0.1,0,0.3,0,0.4-0.1   c0.4-0.2,0.6-0.5,0.6-0.9v-7.5h2.8c1.7,0,3-1.3,3-3v-21.9C-289-685.3-290.3-686.6-292-686.6z M-291-661.8c0,0.6-0.4,1-1,1h-3.8   c-0.6,0-1,0.4-1,1v6.1l-6.8-6.8c-0.2-0.2-0.4-0.3-0.7-0.3h-19.3c-0.6,0-1-0.4-1-1v-21.9c0-0.6,0.4-1,1-1h31.7c0.6,0,1,0.4,1,1   V-661.8z"/><path d="M-296.7-678.7H-319c-0.6,0-1,0.4-1,1s0.4,1,1,1h22.3c0.6,0,1-0.4,1-1S-296.1-678.7-296.7-678.7z"/><path d="M-296.7-673.7H-319c-0.6,0-1,0.4-1,1s0.4,1,1,1h22.3c0.6,0,1-0.4,1-1S-296.1-673.7-296.7-673.7z"/><path d="M-296.7-668.7H-319c-0.6,0-1,0.4-1,1s0.4,1,1,1h22.3c0.6,0,1-0.4,1-1S-296.1-668.7-296.7-668.7z"/></g><g><path d="M-172-686.6h-31.7c-1.7,0-3,1.3-3,3v21.9c0,1.7,1.3,3,3,3h18.9l8.2,8.2c0.2,0.2,0.4,0.3,0.7,0.3c0.1,0,0.3,0,0.4-0.1   c0.4-0.2,0.6-0.5,0.6-0.9v-7.5h2.8c1.7,0,3-1.3,3-3v-21.9C-169-685.3-170.3-686.6-172-686.6z M-171-661.8c0,0.6-0.4,1-1,1h-3.8   c-0.6,0-1,0.4-1,1v6.1l-6.8-6.8c-0.2-0.2-0.4-0.3-0.7-0.3h-19.3c-0.6,0-1-0.4-1-1v-21.9c0-0.6,0.4-1,1-1h31.7c0.6,0,1,0.4,1,1   V-661.8z"/><path d="M-196.7-675.4c-1.5,0-2.8,1.2-2.8,2.8c0,1.5,1.2,2.8,2.8,2.8c1.5,0,2.8-1.2,2.8-2.8C-193.9-674.2-195.2-675.4-196.7-675.4z    M-196.7-671.4c-0.7,0-1.3-0.6-1.3-1.3c0-0.7,0.6-1.3,1.3-1.3c0.7,0,1.3,0.6,1.3,1.3C-195.4-672-196-671.4-196.7-671.4z"/><path d="M-187.8-675.4c-1.5,0-2.8,1.2-2.8,2.8c0,1.5,1.2,2.8,2.8,2.8c1.5,0,2.8-1.2,2.8-2.8C-185.1-674.2-186.3-675.4-187.8-675.4z    M-187.8-671.4c-0.7,0-1.3-0.6-1.3-1.3c0-0.7,0.6-1.3,1.3-1.3c0.7,0,1.3,0.6,1.3,1.3C-186.6-672-187.1-671.4-187.8-671.4z"/><path d="M-179-675.4c-1.5,0-2.8,1.2-2.8,2.8c0,1.5,1.2,2.8,2.8,2.8c1.5,0,2.8-1.2,2.8-2.8C-176.2-674.2-177.5-675.4-179-675.4z    M-179-671.4c-0.7,0-1.3-0.6-1.3-1.3c0-0.7,0.6-1.3,1.3-1.3c0.7,0,1.3,0.6,1.3,1.3C-177.7-672-178.3-671.4-179-671.4z"/></g><g><path d="M-59-683.6c-6.1-6.1-15.9-6.1-22,0c-6.1,6.1-6.1,15.9,0,22l8.9,8.9c0.6,0.6,1.4,0.9,2.1,0.9s1.5-0.3,2.1-0.9l8.9-8.9   C-52.9-667.7-52.9-677.5-59-683.6z M-60.4-663l-8.9,8.9c-0.4,0.4-1,0.4-1.4,0l-8.9-8.9c-5.3-5.3-5.3-13.9,0-19.2   c2.6-2.6,6.1-4,9.6-4c3.5,0,6.9,1.3,9.6,4C-55.1-676.9-55.1-668.3-60.4-663z"/><path d="M-70-679.8c-3.5,0-6.4,2.9-6.4,6.4s2.9,6.4,6.4,6.4s6.4-2.9,6.4-6.4S-66.5-679.8-70-679.8z M-70-669c-2.4,0-4.4-2-4.4-4.4   s2-4.4,4.4-4.4s4.4,2,4.4,4.4S-67.6-669-70-669z"/></g><g><path d="M50-667c3.5,0,6.4-2.9,6.4-6.4s-2.9-6.4-6.4-6.4s-6.4,2.9-6.4,6.4S46.5-667,50-667z M50-677.8c2.4,0,4.4,2,4.4,4.4   s-2,4.4-4.4,4.4s-4.4-2-4.4-4.4S47.6-677.8,50-677.8z"/><path d="M66.5-649l-5.1-8.4c-0.2-0.3-0.5-0.5-0.9-0.5h-3.2l3.7-3.7c2.9-2.9,4.5-6.8,4.5-11s-1.6-8.1-4.5-11c-6.1-6.1-15.9-6.1-22,0   c-2.9,2.9-4.5,6.8-4.5,11s1.6,8.1,4.5,11l3.7,3.7h-3.2c-0.3,0-0.7,0.2-0.9,0.5l-5.1,8.4c-0.2,0.3-0.2,0.7,0,1s0.5,0.5,0.9,0.5h31.3   c0.4,0,0.7-0.2,0.9-0.5S66.7-648.7,66.5-649z M36.5-672.6c0-3.6,1.4-7,4-9.6c2.6-2.6,6.1-4,9.6-4s6.9,1.3,9.6,4c2.6,2.6,4,6,4,9.6   s-1.4,7-4,9.6l-8.9,8.9c-0.4,0.4-1,0.4-1.4,0l-3.3-3.3c-0.1-0.1-0.2-0.2-0.3-0.3l-5.2-5.2C37.9-665.6,36.5-669,36.5-672.6z    M36.1-649.5l3.9-6.4h4.6l3.2,3.2c0.6,0.6,1.3,0.9,2.1,0.9s1.6-0.3,2.1-0.9l3.2-3.2h4.6l3.9,6.4H36.1z"/></g><g><path d="M157.6-680.1c-0.4-0.4-1-0.4-1.4,0c-4.5,4.5-4.5,11.9,0,16.4c0.2,0.2,0.5,0.3,0.7,0.3s0.5-0.1,0.7-0.3c0.4-0.4,0.4-1,0-1.4   c-3.7-3.7-3.7-9.8,0-13.6C158-679.1,158-679.7,157.6-680.1z"/><path d="M189.7-649.4l-8.4-8.4c-0.5-0.5-1.3-0.7-1.9-0.5l-3-3c2.6-2.9,4-6.6,4-10.6c0-4.3-1.7-8.3-4.7-11.3c-3-3-7.1-4.7-11.3-4.7   s-8.3,1.7-11.3,4.7c-6.2,6.3-6.2,16.4,0,22.7c3.1,3.1,7.2,4.7,11.3,4.7c3.8,0,7.6-1.4,10.6-4l3,3c-0.2,0.7,0,1.4,0.5,1.9l8.4,8.4   c0.4,0.4,0.9,0.6,1.4,0.6s1-0.2,1.4-0.6C190.5-647.3,190.5-648.6,189.7-649.4z M154.5-662c-5.5-5.5-5.5-14.4,0-19.8   c2.7-2.6,6.2-4.1,9.9-4.1s7.3,1.5,9.9,4.1c2.7,2.7,4.1,6.2,4.1,9.9c0,3.7-1.5,7.3-4.1,9.9C168.9-656.5,160-656.5,154.5-662z"/></g><g><path d="M297-677.9l-10.8,3.5c-0.1,0-0.1,0.1-0.1,0.1c-0.1,0-0.1,0.1-0.2,0.1c0,0-0.1,0.1-0.1,0.2c0,0-0.1,0.1-0.1,0.1l-3.6,10.9   c-0.1,0.3,0,0.6,0.2,0.8c0.1,0.1,0.3,0.2,0.5,0.2c0.1,0,0.2,0,0.2,0l10.9-3.6c0.1,0,0.1-0.1,0.1-0.1c0.1,0,0.1-0.1,0.2-0.1   c0,0,0.1-0.1,0.1-0.2c0,0,0.1-0.1,0.1-0.1l3.5-10.8c0.1-0.3,0-0.6-0.2-0.8C297.5-677.9,297.2-678,297-677.9z M286.7-672.3l5.6,5.6   L284-664L286.7-672.3z M293.3-667.8l-2.8-2.8l-2.8-2.8l8.3-2.7L293.3-667.8z"/><path d="M290-692.8c-12.6,0-22.8,10.2-22.8,22.8s10.2,22.8,22.8,22.8s22.8-10.2,22.8-22.8S302.6-692.8,290-692.8z M290-648.2   c-12,0-21.8-9.8-21.8-21.8s9.8-21.8,21.8-21.8s21.8,9.8,21.8,21.8S302-648.2,290-648.2z"/><path d="M290-690.9c-11.5,0-20.9,9.4-20.9,20.9s9.4,20.9,20.9,20.9s20.9-9.4,20.9-20.9S301.5-690.9,290-690.9z M290-651.1   c-10.4,0-18.9-8.5-18.9-18.9s8.5-18.9,18.9-18.9s18.9,8.5,18.9,18.9S300.4-651.1,290-651.1z"/><path d="M290-687.5c-9.6,0-17.5,7.8-17.5,17.5s7.8,17.5,17.5,17.5s17.5-7.8,17.5-17.5S299.6-687.5,290-687.5z M290-653   c-9.4,0-17-7.6-17-17s7.6-17,17-17s17,7.6,17,17S299.4-653,290-653z"/><path d="M290-682.3c0.3,0,0.5-0.2,0.5-0.5v-2.2c0-0.3-0.2-0.5-0.5-0.5s-0.5,0.2-0.5,0.5v2.2C289.5-682.5,289.7-682.3,290-682.3z"/><path d="M290-657.7c-0.3,0-0.5,0.2-0.5,0.5v2.2c0,0.3,0.2,0.5,0.5,0.5s0.5-0.2,0.5-0.5v-2.2C290.5-657.5,290.3-657.7,290-657.7z"/><path d="M277.2-670.5h-2.2c-0.3,0-0.5,0.2-0.5,0.5s0.2,0.5,0.5,0.5h2.2c0.3,0,0.5-0.2,0.5-0.5S277.5-670.5,277.2-670.5z"/><path d="M304.9-670.5h-2.2c-0.3,0-0.5,0.2-0.5,0.5s0.2,0.5,0.5,0.5h2.2c0.3,0,0.5-0.2,0.5-0.5S305.2-670.5,304.9-670.5z"/></g><path d="M431-661.7c-0.5-0.3-1.1-0.2-1.4,0.3c-0.8,1.3-1.8,2.4-2.9,3.4l-1.1-1.5c0.9-0.9,1.8-1.9,2.5-2.9c2-3,3.1-6.5,3.1-10.2  c0-10-8.2-18.2-18.2-18.2c-3.3,0-6.3,0.9-9,2.4l-1.1-1.5c3-1.7,6.4-2.7,10.1-2.7c0.6,0,1-0.4,1-1s-0.4-1-1-1  c-4.5,0-8.6,1.3-12.1,3.6c0,0,0,0-0.1,0c0,0,0,0,0,0c-5.9,3.9-9.9,10.7-9.9,18.4c0,11.8,9.3,21.5,21,22v3.4h-3.6c-0.6,0-1,0.4-1,1  s0.4,1,1,1h9.3c0.6,0,1-0.4,1-1s-0.4-1-1-1H414v-3.4c4.9-0.2,9.5-2,13.1-5.1c0,0,0,0,0,0c0,0,0,0,0,0c1.5-1.3,2.9-2.8,4.1-4.5  C431.6-660.8,431.5-661.4,431-661.7z M429.2-672.6c0,3.2-1,6.4-2.8,9.1c-3,4.5-8,7.1-13.4,7.1c-8.9,0-16.2-7.3-16.2-16.2  s7.3-16.2,16.2-16.2C421.9-688.8,429.2-681.6,429.2-672.6z M393-672.6c0-6.7,3.3-12.5,8.3-16.2l1.1,1.5c-4.6,3.3-7.6,8.7-7.6,14.7  c0,10,8.2,18.2,18.2,18.2c4.1,0,8-1.4,11.1-3.8l1.1,1.5c-3.4,2.6-7.7,4.1-12.2,4.1C402-652.6,393-661.6,393-672.6z"/><path d="M551-661.7c-0.5-0.3-1.1-0.2-1.4,0.3c-0.8,1.3-1.8,2.4-2.9,3.4l-1.1-1.5c0.9-0.9,1.8-1.9,2.5-2.9c1.6-2.4,2.6-5,3-7.9  c0-0.1,0-0.1,0-0.2c0,0,0-0.1,0-0.1c0.1-0.7,0.1-1.3,0.1-2c0-10-8.2-18.2-18.2-18.2c-0.5,0-0.9,0-1.4,0.1c0,0-0.1,0-0.1,0  c-2.7,0.2-5.2,1-7.5,2.3l-1.1-1.5c3-1.7,6.4-2.7,10.1-2.7c0.6,0,1-0.4,1-1s-0.4-1-1-1c-4.5,0-8.6,1.3-12.1,3.6c0,0,0,0-0.1,0  c0,0,0,0,0,0c-5.9,3.9-9.9,10.7-9.9,18.4c0,11.8,9.3,21.5,21,22v3.4h-3.6c-0.6,0-1,0.4-1,1s0.4,1,1,1h9.3c0.6,0,1-0.4,1-1  s-0.4-1-1-1H534v-3.4c4.9-0.2,9.5-2,13.1-5.1c0,0,0,0,0,0c0,0,0,0,0,0c1.5-1.3,2.9-2.8,4.1-4.5C551.6-660.8,551.5-661.4,551-661.7z   M546.4-663.6c-1.3,1.9-3,3.5-4.9,4.7c-1.6-2.1-4.8-5.2-5.8-5.7c-1.2-0.6-3.8-2.2-2.8-4.6c0.2-0.4,0.4-0.8,0.5-1.2  c0.1-0.3,0.3-0.6,0.4-1c0.5-1.2,0.7-2.4,0.9-3.5c0.3-1.7,0.5-2.5,1.1-2.6c0.8-0.2,1.6-0.7,2.3-1.1c1.4-0.8,2.2-1.3,3.1-0.8  c0.3,0.1,0.5,0.1,0.8,0.1c0.1,0.3,0.2,0.6,0.2,1c0.2,1.3,0.2,1.9,0.2,2.4c0,0.6,0,1,0.3,1.9c0,0.2,0,0.3-0.1,0.6  c-0.1,0.4-0.4,1,0,1.6c0.4,0.7,1.2,1.1,3.3,1.4c1.3,0.2,2.3,0.4,3,0.5C548.6-667.7,547.7-665.5,546.4-663.6z M516.8-672.6  c0-3.3,1-6.5,2.8-9c0.4,0.6,0.7,1.4,0.9,2.4c0.3,1.3-0.1,2.3-0.5,3.4c-0.2,0.6-0.4,1.3-0.5,1.9c-0.2,1.6-0.3,2.5-1.1,3.2  c-0.4,0.4-0.9,0.9-1.3,1.3C516.9-670.4,516.8-671.5,516.8-672.6z M519.8-669.3c1.3-1.3,1.5-2.8,1.7-4.4c0.1-0.5,0.2-1,0.4-1.5  c0.4-1.2,0.9-2.7,0.5-4.5c-0.3-1.6-1.1-2.9-1.6-3.6c2.3-2.6,5.3-4.4,8.8-5.2c-0.2,0.6-0.4,1.4-0.2,2.2c0.4,1.7,2,3,4.7,3.9  c1.5,0.5,2.7,0.9,3.7,1.2c0.2,0.1,0.4,0.1,0.5,0.2c-0.5,0.2-1,0.5-1.4,0.8c-0.6,0.4-1.2,0.7-1.8,0.9c-1.9,0.5-2.2,2.4-2.5,4.2  c-0.2,1-0.3,2-0.7,3c-0.2,0.4-0.3,0.7-0.4,1c-0.9,2.1-1.4,3.2-3.9,5.3c-1.1,0.9-1.4,0.9-1.4,0.9c0,0-0.2-0.1-0.3-0.2  c-0.4-0.4-1.1-0.9-2.3-0.9c-2,0-4.1,1-4.9,1.4c-0.4-0.8-0.8-1.6-1.1-2.4C518.3-667.7,519.1-668.6,519.8-669.3z M523.8-664  c0.5,0,0.6,0.2,1,0.4c1.2,1.1,2.3,0.9,4.3-0.7c0.9-0.8,1.6-1.4,2.1-2c0.7,1.5,2.2,2.8,3.7,3.5c0.5,0.3,3.3,2.9,4.9,4.8  c-2.1,1-4.4,1.5-6.8,1.5c-5.3,0-10-2.6-13-6.5C520.9-663.4,522.4-664,523.8-664z M549.2-672.6c0,0.3,0,0.5,0,0.8  c-0.6-0.1-1.5-0.3-2.9-0.5c-1-0.2-1.5-0.3-1.8-0.4c0.1-0.4,0.4-1,0.1-1.8c-0.2-0.6-0.2-0.9-0.2-1.3c0-0.5,0-1.2-0.2-2.7  c-0.4-2.9-1.8-3.3-5.7-4.5c-1-0.3-2.2-0.7-3.7-1.1c-2-0.7-3.2-1.5-3.4-2.5c-0.2-0.8,0.3-1.6,0.6-2.1c0.3,0,0.6,0,0.9,0  C541.9-688.8,549.2-681.6,549.2-672.6z M513-672.6c0-6.7,3.3-12.5,8.3-16.2l1.1,1.5c-1.3,0.9-2.5,2-3.5,3.3c0,0,0,0,0,0  c0,0,0,0,0,0.1c-2.5,3.1-4,7.1-4,11.4c0,2,0.3,3.9,0.9,5.7c0,0,0,0.1,0,0.1c2.4,7.2,9.2,12.4,17.2,12.4c3.1,0,6.1-0.8,8.8-2.2  c0,0,0,0,0.1,0c0,0,0,0,0,0c0.8-0.4,1.5-0.9,2.3-1.5l1.1,1.5c-3.4,2.6-7.7,4.1-12.2,4.1C522-652.6,513-661.6,513-672.6z"/><g><path d="M-538.8-558.6l-10.3-10.3c-0.5-0.5-1.3-0.5-1.8,0l-10.3,10.3c-6.2,6.2-6.2,16.2,0,22.4c3.1,3.1,7.1,4.6,11.2,4.6   s8.1-1.5,11.2-4.6C-532.7-542.4-532.7-552.4-538.8-558.6z M-540.6-538c-5.2,5.2-13.6,5.2-18.8,0c-2.5-2.5-3.9-5.8-3.9-9.4   s1.4-6.9,3.9-9.4l9.4-9.4l9.4,9.4C-535.4-551.6-535.4-543.2-540.6-538z"/><path d="M-552.7-538.2c-1.6-0.4-3-1.2-4.2-2.3c-1.8-1.8-2.7-4.2-2.6-6.8c0-0.3-0.2-0.5-0.5-0.5c-0.3,0-0.5,0.2-0.5,0.5   c-0.2,2.8,0.9,5.5,2.9,7.5c1.3,1.3,2.9,2.2,4.6,2.6c0,0,0.1,0,0.1,0c0.2,0,0.4-0.2,0.5-0.4C-552.3-537.9-552.4-538.1-552.7-538.2z"/></g><path d="M-418.6-565.4h-0.1c0.1-0.2,0.1-0.4,0.1-0.6c0-1.2-0.9-2.1-2.1-2.1h-20.7c-1.2,0-2.1,0.9-2.1,2.1c0,0.2,0,0.4,0.1,0.6h-0.1  c-1.6,0-2.9,1.3-2.9,2.9s1.3,2.9,2.9,2.9h0.4l3.1,28.9c0.1,0.5,0.5,0.9,1,0.9h15.9c0.5,0,0.9-0.4,1-0.9l3.1-28.9h0.4  c1.6,0,2.9-1.3,2.9-2.9S-417-565.4-418.6-565.4z M-442.5-566.1c0-0.6,0.5-1.1,1.1-1.1h20.7c0.6,0,1.1,0.5,1.1,1.1  c0,0.2-0.1,0.4-0.2,0.6h-22.5C-442.4-565.6-442.5-565.8-442.5-566.1z M-422.7-544.4h-16.8l-0.3-2.7h17.4L-422.7-544.4z   M-438.2-531.8l-0.8-7.5h15.7l-0.8,7.5H-438.2z M-421.9-552.1h-18.5l-0.8-7.5h20.1L-421.9-552.1z M-418.6-561.6h-1.3h-22.3h-1.3  c-0.5,0-0.9-0.4-0.9-0.9s0.4-0.9,0.9-0.9h24.9c0.5,0,0.9,0.4,0.9,0.9S-418.1-561.6-418.6-561.6z"/><g><path d="M-301.2-557.1h-1v-3.1c0-4.3-3.5-7.8-7.8-7.8s-7.8,3.5-7.8,7.8v3.1h-1c-2.9,0-5.2,2.3-5.2,5.2v15.1c0,2.9,2.3,5.2,5.2,5.2   h17.6c2.9,0,5.2-2.3,5.2-5.2v-15.1C-296-554.8-298.3-557.1-301.2-557.1z M-315.3-560.3c0-2.9,2.4-5.3,5.3-5.3s5.3,2.4,5.3,5.3v3.1   h-10.6V-560.3z M-299-536.9c0,1.2-1,2.2-2.2,2.2h-17.6c-1.2,0-2.2-1-2.2-2.2v-15.1c0-1.2,1-2.2,2.2-2.2h17.6c1.2,0,2.2,1,2.2,2.2   V-536.9z"/><path d="M-310-547c-1.2,0-2.2,1-2.2,2.2c0,1,0.7,1.9,1.7,2.1v2.4c0,0.3,0.2,0.5,0.5,0.5s0.5-0.2,0.5-0.5v-2.4   c1-0.2,1.7-1.1,1.7-2.1C-307.8-546-308.8-547-310-547z"/></g><g><path d="M-181.2-555.4h-1v-6.6c0-4.3-3.5-7.8-7.8-7.8s-7.8,3.5-7.8,7.8v2.9c0,0.7,0.6,1.2,1.2,1.2s1.2-0.6,1.2-1.2v-2.9   c0-2.9,2.4-5.3,5.3-5.3s5.3,2.4,5.3,5.3v6.6h-14.1c-2.9,0-5.2,2.3-5.2,5.2v15.1c0,2.9,2.3,5.2,5.2,5.2h17.6c2.9,0,5.2-2.3,5.2-5.2   v-15.1C-176-553.1-178.3-555.4-181.2-555.4z M-179-535.2c0,1.2-1,2.2-2.2,2.2h-17.6c-1.2,0-2.2-1-2.2-2.2v-15.1   c0-1.2,1-2.2,2.2-2.2h17.6c1.2,0,2.2,1,2.2,2.2V-535.2z"/><path d="M-190-545.3c-1.2,0-2.2,1-2.2,2.2c0,1,0.7,1.9,1.7,2.1v2.4c0,0.3,0.2,0.5,0.5,0.5s0.5-0.2,0.5-0.5v-2.4   c1-0.2,1.7-1.1,1.7-2.1C-187.8-544.3-188.8-545.3-190-545.3z"/></g><g><path d="M188.7-534.8l-8.1-8.1c-0.6-0.6-1.4-0.8-2.1-0.7l-1.9-1.9c4.3-5.4,4-13.3-1-18.4c-5.4-5.4-14.1-5.4-19.5,0   c-5.4,5.4-5.4,14.1,0,19.5c2.6,2.6,6.1,4,9.7,4c3.2,0,6.2-1.1,8.6-3l1.9,1.9c-0.1,0.7,0.1,1.5,0.7,2.1l8.1,8.1   c0.5,0.5,1.1,0.7,1.8,0.7s1.3-0.2,1.8-0.7C189.7-532.2,189.7-533.8,188.7-534.8z M157.5-545.9c-4.6-4.6-4.6-12.1,0-16.6   c2.3-2.3,5.3-3.4,8.3-3.4s6,1.1,8.3,3.4c4.6,4.6,4.6,12.1,0,16.6c-2.2,2.2-5.2,3.4-8.3,3.4S159.7-543.6,157.5-545.9z"/><path d="M170.9-555.5h-4.3v-4.3c0-0.6-0.4-1-1-1s-1,0.4-1,1v4.3h-4.3c-0.6,0-1,0.4-1,1s0.4,1,1,1h4.3v4.3c0,0.6,0.4,1,1,1   s1-0.4,1-1v-4.3h4.3c0.6,0,1-0.4,1-1S171.5-555.5,170.9-555.5z"/></g><g><path d="M308.7-534.8l-8.1-8.1c-0.6-0.6-1.4-0.8-2.1-0.7l-1.9-1.9c4.3-5.4,4-13.3-1-18.4c-5.4-5.4-14.1-5.4-19.5,0   c-5.4,5.4-5.4,14.1,0,19.5c2.6,2.6,6.1,4,9.7,4c3.2,0,6.2-1.1,8.6-3l1.9,1.9c-0.1,0.7,0.1,1.5,0.7,2.1l8.1,8.1   c0.5,0.5,1.1,0.7,1.8,0.7s1.3-0.2,1.8-0.7C309.7-532.2,309.7-533.8,308.7-534.8z M277.5-545.9c-4.6-4.6-4.6-12.1,0-16.6   c2.3-2.3,5.3-3.4,8.3-3.4s6,1.1,8.3,3.4c4.6,4.6,4.6,12.1,0,16.6c-2.2,2.2-5.2,3.4-8.3,3.4S279.7-543.6,277.5-545.9z"/><path d="M290.9-555.5h-10.6c-0.6,0-1,0.4-1,1s0.4,1,1,1h10.6c0.6,0,1-0.4,1-1S291.5-555.5,290.9-555.5z"/></g><g><path d="M417.5-564.3h-12.1c-7.2,0-13,5.9-13,13s5.9,13,13,13h15.9c5.7,0,7.2,5,7.2,5.2c0.1,0.4,0.5,0.7,1,0.7c0,0,0.1,0,0.1,0   c0.5-0.1,0.9-0.5,0.9-1v-18C430.5-558.4,424.7-564.3,417.5-564.3z M428.5-537c-1.5-1.7-3.8-3.2-7.2-3.2h-15.9c-6.1,0-11-5-11-11   s5-11,11-11h12.1c6.1,0,11,5,11,11V-537z"/><path d="M402.9-554.7h17.5c0.4,0,0.8-0.3,0.8-0.8s-0.3-0.8-0.8-0.8h-17.5c-0.4,0-0.8,0.3-0.8,0.8S402.5-554.7,402.9-554.7z"/><path d="M420.5-551.7H403c-0.4,0-0.8,0.3-0.8,0.8s0.3,0.8,0.8,0.8h17.5c0.4,0,0.8-0.3,0.8-0.8S420.9-551.7,420.5-551.7z"/><path d="M412.2-547.4H403c-0.4,0-0.8,0.3-0.8,0.8s0.3,0.8,0.8,0.8h9.2c0.4,0,0.8-0.3,0.8-0.8S412.6-547.4,412.2-547.4z"/></g><g><path d="M530-561.8c-6.5,0-11.8,5.3-11.8,11.8s5.3,11.8,11.8,11.8s11.8-5.3,11.8-11.8S536.5-561.8,530-561.8z M530-540.2   c-5.4,0-9.8-4.4-9.8-9.8s4.4-9.8,9.8-9.8s9.8,4.4,9.8,9.8S535.4-540.2,530-540.2z"/><path d="M530-563.7c0.6,0,1-0.4,1-1v-5.2c0-0.6-0.4-1-1-1s-1,0.4-1,1v5.2C529-564.2,529.4-563.7,530-563.7z"/><path d="M530-536.3c-0.6,0-1,0.4-1,1v5.2c0,0.6,0.4,1,1,1s1-0.4,1-1v-5.2C531-535.8,530.6-536.3,530-536.3z"/><path d="M516.3-550c0-0.6-0.4-1-1-1H510c-0.6,0-1,0.4-1,1s0.4,1,1,1h5.2C515.8-549,516.3-549.4,516.3-550z"/><path d="M550-551h-5.2c-0.6,0-1,0.4-1,1s0.4,1,1,1h5.2c0.6,0,1-0.4,1-1S550.5-551,550-551z"/><path d="M518.9-559.7c0.2,0.2,0.5,0.3,0.7,0.3s0.5-0.1,0.7-0.3c0.4-0.4,0.4-1,0-1.4l-3.7-3.7c-0.4-0.4-1-0.4-1.4,0s-0.4,1,0,1.4   L518.9-559.7z"/><path d="M541.1-540.3c-0.4-0.4-1-0.4-1.4,0s-0.4,1,0,1.4l3.7,3.7c0.2,0.2,0.5,0.3,0.7,0.3s0.5-0.1,0.7-0.3c0.4-0.4,0.4-1,0-1.4   L541.1-540.3z"/><path d="M518.9-540.3l-3.7,3.7c-0.4,0.4-0.4,1,0,1.4c0.2,0.2,0.5,0.3,0.7,0.3s0.5-0.1,0.7-0.3l3.7-3.7c0.4-0.4,0.4-1,0-1.4   S519.3-540.7,518.9-540.3z"/><path d="M540.4-559.4c0.3,0,0.5-0.1,0.7-0.3l3.7-3.7c0.4-0.4,0.4-1,0-1.4s-1-0.4-1.4,0l-3.7,3.7c-0.4,0.4-0.4,1,0,1.4   C539.9-559.5,540.1-559.4,540.4-559.4z"/></g><path d="M-543.6-445.1c-0.4-0.2-0.9-0.1-1.2,0.2c-0.3,0.3-0.4,0.8-0.2,1.2c1,2,1.5,4.1,1.5,6.3c0,7.7-6.3,14-14,14  c-2.2,0-4.3-0.5-6.3-1.5c-0.4-0.2-0.9-0.1-1.2,0.2c-0.3,0.3-0.4,0.8-0.2,1.2c2.7,5.5,8.2,8.9,14.3,8.9c8.8,0,16-7.2,16-16  C-534.8-436.9-538.2-442.4-543.6-445.1z M-550.8-416.8c-4.4,0-8.3-2-11-5.3c1.4,0.4,2.8,0.6,4.3,0.6c8.8,0,16-7.2,16-16  c0-1.5-0.2-2.9-0.6-4.3c3.3,2.6,5.3,6.6,5.3,11C-536.8-423.1-543.1-416.8-550.8-416.8z"/><path d="M-403.6-424.5c0-0.1,0-0.2,0-0.2c0-0.2-0.1-0.5-0.1-0.7c0-0.1,0-0.2-0.1-0.2c-0.1-0.3-0.1-0.5-0.2-0.7c0-0.1,0-0.1,0-0.2  c-0.1-0.3-0.2-0.5-0.3-0.8c0,0,0,0,0,0c-1-2.4-2.9-4.3-5.4-5.4c0,0,0,0-0.1,0c-0.3-0.1-0.5-0.2-0.8-0.3c-0.1,0-0.1,0-0.2-0.1  c-0.2-0.1-0.4-0.1-0.7-0.2c-0.1,0-0.2,0-0.3-0.1c0,0-0.1,0-0.1,0c-1.6-7.6-8.2-13.1-16.1-13.1c-7,0-13.2,4.5-15.5,11  c-0.1,0-0.1,0-0.2,0c-0.2,0-0.5-0.1-0.7-0.1c-0.3,0-0.7-0.1-1-0.1c-6.2,0-11.2,5-11.2,11.2s5,11.2,11.2,11.2h31.6  c5.6,0,10.1-4.5,10.1-10.1C-403.5-423.9-403.5-424.2-403.6-424.5z M-413.7-415.4h-31.6c-5.1,0-9.2-4.1-9.2-9.2  c0-5.1,4.1-9.2,9.2-9.2c0.4,0,0.7,0,1.1,0.1c0,0,0,0,0.1,0c0.4,0.1,0.7,0.1,1.1,0.2c4,1,6.9,4.6,6.9,8.9c0,0.6,0.4,1,1,1s1-0.4,1-1  c0-4.8-3.1-8.9-7.4-10.5c2-5.7,7.5-9.5,13.6-9.5c6.7,0,12.4,4.5,14,10.9c-5.5,0.2-9.9,4.6-9.9,10.1c0,0.6,0.4,1,1,1s1-0.4,1-1  c0-4.5,3.7-8.1,8.1-8.1c0.6,0,1.1,0.1,1.6,0.2c0,0,0,0,0,0c2.6,0.5,4.8,2.4,5.9,4.8c0,0,0,0,0,0c0.1,0.2,0.2,0.5,0.3,0.7  c0,0,0,0.1,0,0.1c0.1,0.2,0.1,0.4,0.2,0.6c0,0,0,0.1,0,0.1c0,0.2,0.1,0.4,0.1,0.6c0,0.1,0,0.1,0,0.2c0,0.3,0,0.5,0,0.8  C-405.5-419-409.2-415.4-413.7-415.4z"/><g><path d="M-283.6-424.5c0-0.1,0-0.2,0-0.2c0-0.2-0.1-0.5-0.1-0.7c0-0.1,0-0.2-0.1-0.2c-0.1-0.3-0.1-0.5-0.2-0.7c0-0.1,0-0.1,0-0.2   c-0.1-0.3-0.2-0.5-0.3-0.8c0,0,0,0,0,0c-1-2.4-2.9-4.3-5.4-5.4c0,0,0,0-0.1,0c-0.3-0.1-0.5-0.2-0.8-0.3c-0.1,0-0.1,0-0.2-0.1   c-0.2-0.1-0.4-0.1-0.7-0.2c-0.1,0-0.2,0-0.3-0.1c0,0-0.1,0-0.1,0c-1.6-7.6-8.2-13.1-16.1-13.1c-7,0-13.2,4.5-15.5,11   c-0.1,0-0.1,0-0.2,0c-0.2,0-0.5-0.1-0.7-0.1c-0.3,0-0.7-0.1-1-0.1c-6.2,0-11.2,5-11.2,11.2s5,11.2,11.2,11.2h31.6   c5.6,0,10.1-4.5,10.1-10.1C-283.5-423.9-283.5-424.2-283.6-424.5z M-293.7-415.4h-31.6c-5.1,0-9.2-4.1-9.2-9.2   c0-5.1,4.1-9.2,9.2-9.2c0.4,0,0.7,0,1.1,0.1c0,0,0,0,0.1,0c0.4,0.1,0.7,0.1,1.1,0.2c4,1,6.9,4.6,6.9,8.9c0,0.6,0.4,1,1,1s1-0.4,1-1   c0-4.8-3.1-8.9-7.4-10.5c2-5.7,7.5-9.5,13.6-9.5c6.7,0,12.4,4.5,14,10.9c-5.5,0.2-9.9,4.6-9.9,10.1c0,0.6,0.4,1,1,1s1-0.4,1-1   c0-4.5,3.7-8.1,8.1-8.1c0.6,0,1.1,0.1,1.6,0.2c0,0,0,0,0,0c2.6,0.5,4.8,2.4,5.9,4.8c0,0,0,0,0,0c0.1,0.2,0.2,0.5,0.3,0.7   c0,0,0,0.1,0,0.1c0.1,0.2,0.1,0.4,0.2,0.6c0,0,0,0.1,0,0.1c0,0.2,0.1,0.4,0.1,0.6c0,0.1,0,0.1,0,0.2c0,0.3,0,0.5,0,0.8   C-285.5-419-289.2-415.4-293.7-415.4z"/><path d="M-322.2-411c-0.6,0-1,0.4-1,1v8.3c0,0.6,0.4,1,1,1s1-0.4,1-1v-8.3C-321.2-410.5-321.6-411-322.2-411z"/><path d="M-312.8-407.4c-0.6,0-1,0.4-1,1v4.7c0,0.6,0.4,1,1,1s1-0.4,1-1v-4.7C-311.8-406.9-312.2-407.4-312.8-407.4z"/><path d="M-304.5-410.1c-0.6,0-1,0.4-1,1v11.7c0,0.6,0.4,1,1,1s1-0.4,1-1v-11.7C-303.5-409.7-304-410.1-304.5-410.1z"/><path d="M-296.4-410.1c-0.6,0-1,0.4-1,1v3.3c0,0.6,0.4,1,1,1s1-0.4,1-1v-3.3C-295.4-409.7-295.8-410.1-296.4-410.1z"/></g><g><path d="M-163.6-424.8c0-0.2-0.1-0.5-0.1-0.7c0-0.1,0-0.2-0.1-0.2c-0.1-0.3-0.1-0.5-0.2-0.7c0-0.1,0-0.1,0-0.2   c-0.1-0.3-0.2-0.5-0.3-0.8c0,0,0,0,0,0c-0.3-0.7-0.6-1.3-1-1.9c3-2.2,4.8-5.7,4.8-9.5c0-6.5-5.3-11.8-11.8-11.8   c-3.9,0-7.5,2-9.7,5.1c-1.8-0.7-3.8-1.1-5.8-1.1c-7,0-13.2,4.5-15.5,11c-0.1,0-0.1,0-0.2,0c-0.2,0-0.5-0.1-0.7-0.1   c-0.3,0-0.7-0.1-1-0.1c-6.2,0-11.2,5-11.2,11.2s5,11.2,11.2,11.2h31.6c5.6,0,10.1-4.5,10.1-10.1c0-0.3,0-0.7-0.1-1   C-163.6-424.6-163.6-424.7-163.6-424.8z M-172.4-448.7c5.4,0,9.8,4.4,9.8,9.8c0,3.2-1.5,6.1-4.1,8c-0.9-0.8-1.9-1.5-3-2   c0,0,0,0-0.1,0c-0.3-0.1-0.5-0.2-0.8-0.3c-0.1,0-0.1,0-0.2-0.1c-0.2-0.1-0.4-0.1-0.7-0.2c-0.1,0-0.2,0-0.3-0.1c0,0-0.1,0-0.1,0   c-1-4.9-4.2-9-8.4-11.2C-178.4-447.2-175.5-448.7-172.4-448.7z M-173.7-415.4h-31.6c-5.1,0-9.2-4.1-9.2-9.2c0-5.1,4.1-9.2,9.2-9.2   c0.4,0,0.7,0,1.1,0.1c0,0,0,0,0.1,0c0.4,0.1,0.7,0.1,1.1,0.2c4,1,6.9,4.6,6.9,8.9c0,0.6,0.4,1,1,1s1-0.4,1-1   c0-4.8-3.1-8.9-7.4-10.5c2-5.7,7.5-9.5,13.6-9.5c6.7,0,12.4,4.5,14,10.9c-5.5,0.2-9.9,4.6-9.9,10.1c0,0.6,0.4,1,1,1s1-0.4,1-1   c0-4.5,3.7-8.1,8.1-8.1c0.6,0,1.1,0.1,1.6,0.2c0,0,0,0,0,0c2.6,0.5,4.8,2.4,5.9,4.8c0,0,0,0,0,0c0.1,0.2,0.2,0.5,0.3,0.7   c0,0,0,0.1,0,0.1c0.1,0.2,0.1,0.4,0.2,0.6c0,0,0,0.1,0,0.1c0,0.2,0.1,0.4,0.1,0.6c0,0.1,0,0.1,0,0.2c0,0.3,0,0.5,0,0.8   C-165.5-419-169.2-415.4-173.7-415.4z"/><path d="M-172.4-452.6c0.6,0,1-0.4,1-1v-5.2c0-0.6-0.4-1-1-1s-1,0.4-1,1v5.2C-173.4-453-173-452.6-172.4-452.6z"/><path d="M-152.4-439.8h-5.2c-0.6,0-1,0.4-1,1s0.4,1,1,1h5.2c0.6,0,1-0.4,1-1S-151.9-439.8-152.4-439.8z"/><path d="M-183.5-448.5c0.2,0.2,0.5,0.3,0.7,0.3s0.5-0.1,0.7-0.3c0.4-0.4,0.4-1,0-1.4l-3.7-3.7c-0.4-0.4-1-0.4-1.4,0s-0.4,1,0,1.4   L-183.5-448.5z"/><path d="M-161.3-429.1c-0.4-0.4-1-0.4-1.4,0s-0.4,1,0,1.4l3.7,3.7c0.2,0.2,0.5,0.3,0.7,0.3s0.5-0.1,0.7-0.3c0.4-0.4,0.4-1,0-1.4   L-161.3-429.1z"/><path d="M-162-448.2c0.3,0,0.5-0.1,0.7-0.3l3.7-3.7c0.4-0.4,0.4-1,0-1.4s-1-0.4-1.4,0l-3.7,3.7c-0.4,0.4-0.4,1,0,1.4   C-162.5-448.3-162.3-448.2-162-448.2z"/></g><g><path d="M-60.5-569.8c-4.3,0-7.8,3.5-7.8,7.8v6.6h-14.1c-2.9,0-5.2,2.3-5.2,5.2v15.1c0,2.9,2.3,5.2,5.2,5.2h17.6   c2.9,0,5.2-2.3,5.2-5.2v-15.1c0-2.9-2.3-5.2-5.2-5.2h-1v-6.6c0-2.9,2.4-5.3,5.3-5.3s5.3,2.4,5.3,5.3v2.9c0,0.7,0.6,1.2,1.2,1.2   s1.2-0.6,1.2-1.2v-2.9C-52.7-566.3-56.2-569.8-60.5-569.8z M-62.6-550.2v15.1c0,1.2-1,2.2-2.2,2.2h-17.6c-1.2,0-2.2-1-2.2-2.2   v-15.1c0-1.2,1-2.2,2.2-2.2h17.6C-63.5-552.4-62.6-551.4-62.6-550.2z"/><path d="M-74.1-541v2.4c0,0.3,0.2,0.5,0.5,0.5s0.5-0.2,0.5-0.5v-2.4c1-0.2,1.7-1.1,1.7-2.1c0-1.2-1-2.2-2.2-2.2s-2.2,1-2.2,2.2   C-75.7-542.1-75-541.2-74.1-541z"/></g><path d="M68.5-563.8H31.5c-1.4,0-2.5,1.1-2.5,2.5v22.5c0,1.4,1.1,2.5,2.5,2.5h36.9c1.4,0,2.5-1.1,2.5-2.5v-22.5  C71-562.7,69.9-563.8,68.5-563.8z M65.6-561.8l-12.7,10.1c-1.7,1.2-4,1.2-5.7,0.1l-12.9-10.2H65.6z M69-538.7c0,0.3-0.2,0.5-0.5,0.5  H31.5c-0.3,0-0.5-0.2-0.5-0.5v-22.5c0-0.2,0.1-0.4,0.3-0.5L46.1-550c2.4,1.7,5.6,1.6,8-0.1l14.6-11.7c0.2,0.1,0.3,0.3,0.3,0.5  V-538.7z"/><path d="M-61-433.9l-16.9,16.9c-2.7,2.7-7.1,2.7-9.8,0c-1.3-1.3-2-3.1-2-4.9s0.7-3.6,2-4.9c0,0,0,0,0,0s0,0,0,0l19.7-19.7  c0,0,0,0,0,0c0.8-0.8,1.9-1.3,3.1-1.3c1.2,0,2.3,0.5,3.1,1.3c1.7,1.7,1.7,4.5,0,6.2c0,0,0,0,0,0l-19.7,19.7c0,0,0,0.1-0.1,0.1  c0,0-0.1,0-0.1,0.1c-0.7,0.7-1.8,0.7-2.5,0c-0.7-0.7-0.7-1.8,0-2.5c0,0,0,0,0,0c0,0,0,0,0,0l17-17c0.5-0.5,0.5-1.3,0-1.8  s-1.3-0.5-1.8,0l-17,17c0,0,0,0,0,0c0,0,0,0,0,0c-1.7,1.7-1.7,4.4,0,6.1c0.8,0.8,1.9,1.3,3,1.3c1.1,0,2.2-0.4,3-1.3  c0,0,0-0.1,0.1-0.1c0,0,0.1,0,0.1-0.1l19.7-19.7c0,0,0,0,0,0c2.7-2.7,2.7-7.1,0-9.8c-1.3-1.3-3-2-4.9-2s-3.6,0.7-4.9,2c0,0,0,0,0,0  l-19.7,19.7c0,0,0,0,0,0s0,0,0,0c-1.8,1.8-2.8,4.2-2.8,6.7s1,4.9,2.8,6.7c1.8,1.8,4.3,2.8,6.7,2.8c2.4,0,4.8-0.9,6.7-2.8l16.9-16.9  c0.5-0.5,0.5-1.3,0-1.8S-60.5-434.4-61-433.9z"/><g><path d="M51.5-438.9c-5.5,0-10,4.5-10,10s4.5,10,10,10s10-4.5,10-10S57.1-438.9,51.5-438.9z M51.5-419.9c-5,0-9-4-9-9s4-9,9-9   c5,0,9,4,9,9S56.5-419.9,51.5-419.9z"/><path d="M51.5-435.4c0.3,0,0.5-0.2,0.5-0.5v-0.7c0-0.3-0.2-0.5-0.5-0.5s-0.5,0.2-0.5,0.5v0.7C51-435.6,51.3-435.4,51.5-435.4z"/><path d="M51.5-422.4c-0.3,0-0.5,0.2-0.5,0.5v0.7c0,0.3,0.2,0.5,0.5,0.5s0.5-0.2,0.5-0.5v-0.7C52-422.2,51.8-422.4,51.5-422.4z"/><path d="M44.6-429.4h-0.7c-0.3,0-0.5,0.2-0.5,0.5s0.2,0.5,0.5,0.5h0.7c0.3,0,0.5-0.2,0.5-0.5S44.8-429.4,44.6-429.4z"/><path d="M58.5-428.4h0.7c0.3,0,0.5-0.2,0.5-0.5s-0.2-0.5-0.5-0.5h-0.7c-0.3,0-0.5,0.2-0.5,0.5S58.3-428.4,58.5-428.4z"/><path d="M46.5-434.7c-0.2-0.2-0.5-0.2-0.7,0s-0.2,0.5,0,0.7l0.5,0.5c0.1,0.1,0.2,0.1,0.4,0.1s0.3,0,0.4-0.1c0.2-0.2,0.2-0.5,0-0.7   L46.5-434.7z"/><path d="M56.8-424.3c-0.2-0.2-0.5-0.2-0.7,0s-0.2,0.5,0,0.7l0.5,0.5c0.1,0.1,0.2,0.1,0.4,0.1s0.3,0,0.4-0.1c0.2-0.2,0.2-0.5,0-0.7   L56.8-424.3z"/><path d="M46.2-424.3l-0.5,0.5c-0.2,0.2-0.2,0.5,0,0.7c0.1,0.1,0.2,0.1,0.4,0.1s0.3,0,0.4-0.1l0.5-0.5c0.2-0.2,0.2-0.5,0-0.7   S46.4-424.5,46.2-424.3z"/><path d="M56.6-434.7l-0.5,0.5l-5.3,4.9c-0.2,0.2-0.2,0.5,0,0.7c0.1,0.1,0.2,0.2,0.4,0.2c0.1,0,0.2,0,0.3-0.1l5.4-4.9c0,0,0,0,0,0   c0,0,0,0,0,0l0.5-0.5c0.2-0.2,0.2-0.5,0-0.7S56.8-434.9,56.6-434.7z"/><path d="M66.2-430.6H66c-0.4-3.6-2.2-6.8-4.8-9.1L59-452.9c-0.1-0.5-0.5-0.8-1-0.8H45.1c-0.5,0-0.9,0.3-1,0.8l-2.3,13.2   c-3,2.7-4.9,6.6-4.9,10.9s1.9,8.2,4.9,10.9l2.3,13.2c0.1,0.5,0.5,0.8,1,0.8l12.9,0c0.5,0,0.9-0.3,1-0.8l2.3-13.2   c2.5-2.2,4.2-5.3,4.7-8.7h0.2c0.7,0,1.2-0.6,1.2-1.2v-1.4C67.4-430.1,66.8-430.6,66.2-430.6z M58.9-441.5c-2-1.2-4.4-1.9-6.9-2   v-8.3h5.1L58.9-441.5z M46-451.8H51v8.3c-2.5,0.1-4.9,0.8-6.9,2L46-451.8z M44.2-416.3c2,1.2,4.4,1.9,6.9,2v8.3l-5.1,0L44.2-416.3z    M57.1-406l-5.1,0v-8.3c2.5-0.1,4.9-0.8,6.9-2L57.1-406z M51.5-417.3c-6.4,0-11.6-5.2-11.6-11.6s5.2-11.6,11.6-11.6   c6.4,0,11.6,5.2,11.6,11.6S57.9-417.3,51.5-417.3z"/></g><g><path d="M177.1-442.8c-2.1-2.1-4.9-3.1-7.8-2.9c-0.3,0-0.5,0.3-0.5,0.5c0,0.3,0.3,0.5,0.5,0.5c2.6-0.2,5.2,0.8,7,2.6   c1.6,1.6,2.6,3.8,2.6,6.1c0,0.3,0.2,0.5,0.5,0.5c0,0,0,0,0,0c0.3,0,0.5-0.2,0.5-0.5C180-438.6,178.9-441,177.1-442.8z"/><path d="M180.5-445.5l-0.7-0.7c-5.4-5.4-14.2-5.4-19.6,0l-0.7,0.7c-2.6,2.6-4.1,6.1-4.1,9.8s1.4,7.2,4.1,9.8l5.5,5.5v7.1   c0,1.9,1.6,3.5,3.5,3.5h3c1.9,0,3.5-1.6,3.5-3.5v-7.1l5.5-5.5c2.6-2.6,4.1-6.1,4.1-9.8S183.1-442.8,180.5-445.5z M173-413.3   c0,0.8-0.7,1.5-1.5,1.5h-3c-0.8,0-1.5-0.7-1.5-1.5v-0.6h6V-413.3z M173-415.9h-6v-2.8c0.9,0.5,2,0.8,3,0.8c0,0,0,0,0.1,0l0,0   c0.4,0,0.7,0,1-0.1c0,0,0.1,0,0.1,0c0.3-0.1,0.6-0.2,0.9-0.3c0.1,0,0.2-0.1,0.3-0.1c0.2-0.1,0.4-0.2,0.6-0.3V-415.9z M179.1-427.3   l-6.2,6.2c-0.2,0.2-0.3,0.3-0.5,0.4c-0.1,0.1-0.3,0.2-0.4,0.2c-0.1,0-0.1,0.1-0.2,0.1c-0.1,0.1-0.2,0.1-0.4,0.2   c-0.5,0.2-0.9,0.3-1.4,0.3c-1.2,0-2.1-0.5-2.7-1c-0.1-0.1-0.2-0.1-0.3-0.2l-6.2-6.2c-2.2-2.2-3.5-5.2-3.5-8.4   c0-3.2,1.2-6.1,3.5-8.4l0.7-0.7c2.3-2.3,5.4-3.5,8.4-3.5s6.1,1.2,8.4,3.5l0.7,0.7c2.2,2.2,3.5,5.2,3.5,8.4   C182.5-432.5,181.3-429.5,179.1-427.3z"/></g><g><path d="M296.2-446.5h-11.8c-1.5,0-2.7,1.2-2.7,2.7v24.8c0,1.5,1.2,2.7,2.7,2.7h11.8c1.5,0,2.7-1.2,2.7-2.7v-24.8   C298.9-445.3,297.7-446.5,296.2-446.5z M297.9-419c0,0.9-0.8,1.7-1.7,1.7h-11.8c-0.9,0-1.7-0.8-1.7-1.7v-24.8   c0-0.9,0.8-1.7,1.7-1.7h11.8c0.9,0,1.7,0.8,1.7,1.7V-419z"/><path d="M299.8-452.5h-18.9c-1.8,0-3.2,1.4-3.2,3.2v35.9c0,1.8,1.4,3.2,3.2,3.2h18.9c1.8,0,3.2-1.4,3.2-3.2v-35.9   C303-451.1,301.5-452.5,299.8-452.5z M301-413.4c0,0.7-0.5,1.2-1.2,1.2h-18.9c-0.7,0-1.2-0.5-1.2-1.2v-35.9c0-0.7,0.5-1.2,1.2-1.2   h18.9c0.7,0,1.2,0.5,1.2,1.2V-413.4z"/><path d="M289-447.9h2.7c0.3,0,0.5-0.2,0.5-0.5s-0.2-0.5-0.5-0.5H289c-0.3,0-0.5,0.2-0.5,0.5S288.7-447.9,289-447.9z"/><path d="M290.6-414.7H290c-0.3,0-0.5,0.2-0.5,0.5s0.2,0.5,0.5,0.5h0.6c0.3,0,0.5-0.2,0.5-0.5S290.9-414.7,290.6-414.7z"/></g><g><path d="M420.9-447.6h-21.8c-1.5,0-2.7,1.2-2.7,2.7v29.8c0,1.5,1.2,2.7,2.7,2.7h21.8c1.5,0,2.7-1.2,2.7-2.7v-29.8   C423.6-446.4,422.4-447.6,420.9-447.6z M422.6-415.1c0,0.9-0.8,1.7-1.7,1.7h-21.8c-0.9,0-1.7-0.8-1.7-1.7v-29.8   c0-0.9,0.8-1.7,1.7-1.7h21.8c0.9,0,1.7,0.8,1.7,1.7V-415.1z"/><path d="M424.5-453.6h-28.9c-1.8,0-3.2,1.4-3.2,3.2v40.9c0,1.8,1.4,3.2,3.2,3.2h28.9c1.8,0,3.2-1.4,3.2-3.2v-40.9   C427.7-452.2,426.2-453.6,424.5-453.6z M425.7-409.6c0,0.7-0.5,1.2-1.2,1.2h-28.9c-0.7,0-1.2-0.5-1.2-1.2v-40.9   c0-0.7,0.5-1.2,1.2-1.2h28.9c0.7,0,1.2,0.5,1.2,1.2V-409.6z"/><path d="M410.3-410.8h-0.6c-0.3,0-0.5,0.2-0.5,0.5s0.2,0.5,0.5,0.5h0.6c0.3,0,0.5-0.2,0.5-0.5S410.6-410.8,410.3-410.8z"/></g><g><path d="M554.5-419.2c-0.5,0-1-0.4-1-1l-0.6-27.9c0-2-1.6-3.6-3.6-3.6h-36.5c-2,0-3.6,1.6-3.6,3.6l0.6,27.8c0,0.6-0.4,1-1,1   c-0.5,0-1-0.4-1-1l-0.6-27.9c0-3.1,2.5-5.6,5.6-5.6h36.5c3.1,0,5.6,2.5,5.6,5.6l0.6,27.8C555.5-419.7,555.1-419.2,554.5-419.2   C554.5-419.2,554.5-419.2,554.5-419.2z"/></g><g><path d="M546.1-423.8h-29.4c-2.3,0-4.1-1.8-4.1-4.1v-17c0-2.3,1.8-4.1,4.1-4.1h29.4c2.3,0,4.1,1.8,4.1,4.1v17   C550.2-425.7,548.4-423.8,546.1-423.8z M516.7-448c-1.7,0-3.1,1.4-3.1,3.1v17c0,1.7,1.4,3.1,3.1,3.1h29.4c1.7,0,3.1-1.4,3.1-3.1   v-17c0-1.7-1.4-3.1-3.1-3.1H516.7z"/></g><g><path d="M557.5-415.9h-52.7c-1.5,0-2.7-1.2-2.7-2.7s1.2-2.7,2.7-2.7h52.7c1.5,0,2.7,1.2,2.7,2.7S558.9-415.9,557.5-415.9z    M504.8-419.2c-0.4,0-0.7,0.3-0.7,0.7s0.3,0.7,0.7,0.7h52.7c0.4,0,0.7-0.3,0.7-0.7s-0.3-0.7-0.7-0.7H504.8z"/></g><g><path d="M-530.8-329.9h-35.6c-1.3,0-2.3,1.1-2.3,2.3v22.3c0,1.3,1.1,2.3,2.3,2.3h35.6c1.3,0,2.3-1.1,2.3-2.3l0-22.3   C-528.4-328.9-529.5-329.9-530.8-329.9z M-530.8-303.9h-35.6c-0.7,0-1.3-0.6-1.3-1.3v-22.3c0-0.7,0.6-1.3,1.3-1.3h35.6   c0.7,0,1.3,0.6,1.3,1.3l0,22.3C-529.4-304.5-530-303.9-530.8-303.9z"/><path d="M-529.6-333.6h-38c-2.8,0-5.1,2.3-5.1,5.1v24.2c0,2.8,2.3,5.1,5.1,5.1h18.8v2.2c0,0.3,0.2,0.5,0.5,0.5s0.5-0.2,0.5-0.5   v-2.2h18.2c2.8,0,5.1-2.3,5.1-5.1v-24.2C-524.5-331.3-526.8-333.6-529.6-333.6z M-526.5-304.3c0,1.7-1.4,3.1-3.1,3.1h-38   c-1.7,0-3.1-1.4-3.1-3.1v-24.2c0-1.7,1.4-3.1,3.1-3.1h38c1.7,0,3.1,1.4,3.1,3.1V-304.3z"/><path d="M-544.4-295.1h-8.3c-1.3,0-2.4,1.1-2.4,2.4s1.1,2.4,2.4,2.4h8.3c1.3,0,2.4-1.1,2.4-2.4S-543.1-295.1-544.4-295.1z    M-544.4-292.2h-8.3c-0.2,0-0.4-0.2-0.4-0.4c0-0.2,0.2-0.4,0.4-0.4h8.3c0.2,0,0.4,0.2,0.4,0.4C-544-292.4-544.2-292.2-544.4-292.2z   "/></g><g><path d="M-422.8-322.2c0.3,0,0.5-0.2,0.5-0.5v-3.4c0-1.5-1.2-2.6-2.6-2.6h-21.3c-1.5,0-2.6,1.2-2.6,2.6v29.1c0,1.5,1.2,2.6,2.6,2.6   h15.3c0.3,0,0.5-0.2,0.5-0.5s-0.2-0.5-0.5-0.5h-15.3c-0.9,0-1.6-0.7-1.6-1.6v-29.1c0-0.9,0.7-1.6,1.6-1.6h21.3   c0.9,0,1.6,0.7,1.6,1.6v3.4C-423.3-322.4-423.1-322.2-422.8-322.2z"/><path d="M-430.9-290.5h-18.8c-0.6,0-1.1-0.5-1.1-1.1v-39.9c0-0.6,0.5-1.1,1.1-1.1h28.2c0.6,0,1.1,0.5,1.1,1.1v8.5c0,0.6,0.4,1,1,1   s1-0.4,1-1v-8.5c0-1.7-1.4-3.1-3.1-3.1h-28.2c-1.7,0-3.1,1.4-3.1,3.1v39.9c0,1.7,1.4,3.1,3.1,3.1h18.8c0.6,0,1-0.4,1-1   S-430.4-290.5-430.9-290.5z"/><path d="M-435.9-292.8c-0.3,0-0.5,0.2-0.5,0.5s0.2,0.5,0.5,0.5h0.6c0.3,0,0.5-0.2,0.5-0.5s-0.2-0.5-0.5-0.5H-435.9z"/><path d="M-413.3-315.6h-9c-1.5,0-2.7,1.2-2.7,2.7v19.8c0,1.5,1.2,2.7,2.7,2.7h9c1.5,0,2.7-1.2,2.7-2.7v-19.8   C-410.6-314.4-411.8-315.6-413.3-315.6z M-411.6-293.1c0,0.9-0.8,1.7-1.7,1.7h-9c-0.9,0-1.7-0.8-1.7-1.7v-19.8   c0-0.9,0.8-1.7,1.7-1.7h9c0.9,0,1.7,0.8,1.7,1.7V-293.1z"/><path d="M-410.4-320.5h-15c-1.6,0-2.9,1.3-2.9,2.9v29c0,1.6,1.3,2.9,2.9,2.9h15c1.6,0,2.9-1.3,2.9-2.9v-29   C-407.4-319.2-408.7-320.5-410.4-320.5z M-408.9-288.5c0,0.8-0.6,1.4-1.4,1.4h-15c-0.8,0-1.4-0.6-1.4-1.4v-29   c0-0.8,0.6-1.4,1.4-1.4h15c0.8,0,1.4,0.6,1.4,1.4V-288.5z"/><path d="M-419-316.6h2.3c0.3,0,0.5-0.2,0.5-0.5s-0.2-0.5-0.5-0.5h-2.3c-0.3,0-0.5,0.2-0.5,0.5S-419.2-316.6-419-316.6z"/><path d="M-417.6-289.3h-0.5c-0.3,0-0.5,0.2-0.5,0.5s0.2,0.5,0.5,0.5h0.5c0.3,0,0.5-0.2,0.5-0.5S-417.3-289.3-417.6-289.3z"/></g><g><path d="M-319.8-324.9h-13.4c-0.3,0-0.5,0.2-0.5,0.5s0.2,0.5,0.5,0.5h13.4c0.3,0,0.5-0.2,0.5-0.5S-319.6-324.9-319.8-324.9z"/><path d="M-319.8-320h-13.4c-0.3,0-0.5,0.2-0.5,0.5s0.2,0.5,0.5,0.5h13.4c0.3,0,0.5-0.2,0.5-0.5S-319.6-320-319.8-320z"/><path d="M-319.8-315.1h-13.4c-0.3,0-0.5,0.2-0.5,0.5s0.2,0.5,0.5,0.5h13.4c0.3,0,0.5-0.2,0.5-0.5S-319.6-315.1-319.8-315.1z"/><path d="M-319.8-310.1h-13.4c-0.3,0-0.5,0.2-0.5,0.5s0.2,0.5,0.5,0.5h13.4c0.3,0,0.5-0.2,0.5-0.5S-319.6-310.1-319.8-310.1z"/><path d="M-319.8-305.2h-13.4c-0.3,0-0.5,0.2-0.5,0.5s0.2,0.5,0.5,0.5h13.4c0.3,0,0.5-0.2,0.5-0.5S-319.6-305.2-319.8-305.2z"/><path d="M-319.8-300.2h-13.4c-0.3,0-0.5,0.2-0.5,0.5s0.2,0.5,0.5,0.5h13.4c0.3,0,0.5-0.2,0.5-0.5S-319.6-300.2-319.8-300.2z"/><path d="M-292.1-332.8h-21.6c0,0-0.1,0-0.1,0c-0.1,0-0.2,0-0.2,0h-21.3c-2.8,0-5,2.2-5,5v31.5c0,2.8,2.2,5,5,5h21.3   c0.1,0,0.2,0,0.2,0c0,0,0.1,0,0.1,0h21.6c2.8,0,5-2.2,5-5v-31.5C-287.1-330.6-289.3-332.8-292.1-332.8z M-338.4-296.3v-31.5   c0-1.7,1.3-3,3-3h20.6v5.9h-0.8c-0.3,0-0.5,0.2-0.5,0.5s0.2,0.5,0.5,0.5h0.8v11.3h-0.8c-0.3,0-0.5,0.2-0.5,0.5s0.2,0.5,0.5,0.5h0.8   v11.3h-0.8c-0.3,0-0.5,0.2-0.5,0.5s0.2,0.5,0.5,0.5h0.8v5.9h-20.6C-337-293.3-338.4-294.7-338.4-296.3z M-289.1-296.3   c0,1.7-1.4,3-3,3h-20.6v-5.9h0.8c0.3,0,0.5-0.2,0.5-0.5s-0.2-0.5-0.5-0.5h-0.8v-11.3h0.8c0.3,0,0.5-0.2,0.5-0.5s-0.2-0.5-0.5-0.5   h-0.8v-11.3h0.8c0.3,0,0.5-0.2,0.5-0.5s-0.2-0.5-0.5-0.5h-0.8v-5.9h20.6c1.7,0,3,1.4,3,3V-296.3z"/><path d="M-294.2-324.9h-13.4c-0.3,0-0.5,0.2-0.5,0.5s0.2,0.5,0.5,0.5h13.4c0.3,0,0.5-0.2,0.5-0.5S-293.9-324.9-294.2-324.9z"/><path d="M-294.2-320h-13.4c-0.3,0-0.5,0.2-0.5,0.5s0.2,0.5,0.5,0.5h13.4c0.3,0,0.5-0.2,0.5-0.5S-293.9-320-294.2-320z"/><path d="M-294.2-315.1h-13.4c-0.3,0-0.5,0.2-0.5,0.5s0.2,0.5,0.5,0.5h13.4c0.3,0,0.5-0.2,0.5-0.5S-293.9-315.1-294.2-315.1z"/><path d="M-294.2-310.1h-13.4c-0.3,0-0.5,0.2-0.5,0.5s0.2,0.5,0.5,0.5h13.4c0.3,0,0.5-0.2,0.5-0.5S-293.9-310.1-294.2-310.1z"/><path d="M-294.2-305.2h-13.4c-0.3,0-0.5,0.2-0.5,0.5s0.2,0.5,0.5,0.5h13.4c0.3,0,0.5-0.2,0.5-0.5S-293.9-305.2-294.2-305.2z"/><path d="M-294.2-300.2h-13.4c-0.3,0-0.5,0.2-0.5,0.5s0.2,0.5,0.5,0.5h13.4c0.3,0,0.5-0.2,0.5-0.5S-293.9-300.2-294.2-300.2z"/></g><g><path d="M-164.6-316.1h-4.9v-2.1c0-2.5-2.1-4.6-4.6-4.6h-1.4v-7.5c0-0.4-0.3-0.8-0.8-0.8h-27.5c-0.4,0-0.8,0.3-0.8,0.8v7.5h-1.4   c-2.5,0-4.6,2.1-4.6,4.6v2.1h-4.9c-0.4,0-0.8,0.3-0.8,0.8v14.6v5.2c0,0.4,0.3,0.8,0.8,0.8h10.9v5.2c0,0.4,0.3,0.8,0.8,0.8h27.5   c0.4,0,0.8-0.3,0.8-0.8v-5.2h10.9c0.4,0,0.8-0.3,0.8-0.8v-5.2v-14.6C-163.8-315.8-164.2-316.1-164.6-316.1z M-174.1-321.4   c1.7,0,3.1,1.4,3.1,3.1v2.1h-4.5v-5.2H-174.1z M-203-329.6h26v13.5h-26V-329.6z M-209-318.2c0-1.7,1.4-3.1,3.1-3.1h1.4v5.2h-2h-2.6   V-318.2z M-209.8-314.6h3.3h2.7h27.5h6h4.9v13.1h-6.3h-4.6h-38.4v-13.1H-209.8z M-214.7-296.3v-3.7h10.2v3.7H-214.7z M-177-290.4   h-26v-9.6h26V-290.4z M-165.3-296.3h-10.2v-3.7h3.9h6.3V-296.3z"/><path d="M-211.7-310.4h4.6c0.3,0,0.5-0.2,0.5-0.5s-0.2-0.5-0.5-0.5h-4.6c-0.3,0-0.5,0.2-0.5,0.5S-212-310.4-211.7-310.4z"/><path d="M-211.7-308.3h1.2c0.3,0,0.5-0.2,0.5-0.5s-0.2-0.5-0.5-0.5h-1.2c-0.3,0-0.5,0.2-0.5,0.5S-212-308.3-211.7-308.3z"/><path d="M-181.8-297.4h-18.1c-0.3,0-0.5,0.2-0.5,0.5s0.2,0.5,0.5,0.5h18.1c0.3,0,0.5-0.2,0.5-0.5S-181.5-297.4-181.8-297.4z"/><path d="M-190.8-294.4h-9c-0.3,0-0.5,0.2-0.5,0.5s0.2,0.5,0.5,0.5h9c0.3,0,0.5-0.2,0.5-0.5S-190.6-294.4-190.8-294.4z"/></g><g><path d="M-77.8-313.6h3.8c0.3,0,0.5-0.2,0.5-0.5v-3.8c0-0.3-0.2-0.5-0.5-0.5h-3.8c-0.3,0-0.5,0.2-0.5,0.5v3.8   C-78.3-313.8-78.1-313.6-77.8-313.6z M-77.3-317.4h2.8v2.8h-2.8V-317.4z"/><path d="M-66-318.4h-3.8c-0.3,0-0.5,0.2-0.5,0.5v3.8c0,0.3,0.2,0.5,0.5,0.5h3.8c0.3,0,0.5-0.2,0.5-0.5v-3.8   C-65.5-318.2-65.7-318.4-66-318.4z M-66.5-314.6h-2.8v-2.8h2.8V-314.6z"/><path d="M-58-318.4h-3.8c-0.3,0-0.5,0.2-0.5,0.5v3.8c0,0.3,0.2,0.5,0.5,0.5h3.8c0.3,0,0.5-0.2,0.5-0.5v-3.8   C-57.5-318.2-57.7-318.4-58-318.4z M-58.5-314.6h-2.8v-2.8h2.8V-314.6z"/><path d="M-77.8-306.6h3.8c0.3,0,0.5-0.2,0.5-0.5v-3.8c0-0.3-0.2-0.5-0.5-0.5h-3.8c-0.3,0-0.5,0.2-0.5,0.5v3.8   C-78.3-306.8-78.1-306.6-77.8-306.6z M-77.3-310.4h2.8v2.8h-2.8V-310.4z"/><path d="M-66-311.4h-3.8c-0.3,0-0.5,0.2-0.5,0.5v3.8c0,0.3,0.2,0.5,0.5,0.5h3.8c0.3,0,0.5-0.2,0.5-0.5v-3.8   C-65.5-311.2-65.7-311.4-66-311.4z M-66.5-307.6h-2.8v-2.8h2.8V-307.6z"/><path d="M-58-311.4h-3.8c-0.3,0-0.5,0.2-0.5,0.5v3.8c0,0.3,0.2,0.5,0.5,0.5h3.8c0.3,0,0.5-0.2,0.5-0.5v-3.8   C-57.5-311.2-57.7-311.4-58-311.4z M-58.5-307.6h-2.8v-2.8h2.8V-307.6z"/><path d="M-77.8-299.6h3.8c0.3,0,0.5-0.2,0.5-0.5v-3.8c0-0.3-0.2-0.5-0.5-0.5h-3.8c-0.3,0-0.5,0.2-0.5,0.5v3.8   C-78.3-299.8-78.1-299.6-77.8-299.6z M-77.3-303.4h2.8v2.8h-2.8V-303.4z"/><path d="M-66-304.4h-3.8c-0.3,0-0.5,0.2-0.5,0.5v3.8c0,0.3,0.2,0.5,0.5,0.5h3.8c0.3,0,0.5-0.2,0.5-0.5v-3.8   C-65.5-304.2-65.7-304.4-66-304.4z M-66.5-300.6h-2.8v-2.8h2.8V-300.6z"/><path d="M-58-304.4h-3.8c-0.3,0-0.5,0.2-0.5,0.5v3.8c0,0.3,0.2,0.5,0.5,0.5h3.8c0.3,0,0.5-0.2,0.5-0.5v-3.8   C-57.5-304.2-57.7-304.4-58-304.4z M-58.5-300.6h-2.8v-2.8h2.8V-300.6z"/><path d="M-75.3-320.5h14.8c1.6,0,3-1.3,3-3v-2.9c0-1.6-1.3-3-3-3h-14.8c-1.6,0-3,1.3-3,3v2.9C-78.3-321.8-77-320.5-75.3-320.5z    M-77.3-326.4c0-1.1,0.9-2,2-2h14.8c1.1,0,2,0.9,2,2v2.9c0,1.1-0.9,2-2,2h-14.8c-1.1,0-2-0.9-2-2V-326.4z"/><path d="M-54-334.7h-27.9c-0.6,0-1,0.4-1,1v38.4c0,0.6,0.4,1,1,1H-54c0.6,0,1-0.4,1-1v-38.4C-53-334.2-53.4-334.7-54-334.7z    M-55-296.3h-25.9v-36.4H-55V-296.3z"/></g><g><path d="M66.4-325.3H33.6c-2.8,0-5.1,2.3-5.1,5.1v1.4v7.8v11.2c0,2.8,2.3,5.1,5.1,5.1h32.8c2.8,0,5.1-2.3,5.1-5.1V-311v-7.8v-1.4   C71.5-323,69.2-325.3,66.4-325.3z M30.5-316.8h39v3.8h-39V-316.8z M69.5-299.8c0,1.7-1.4,3.1-3.1,3.1H33.6c-1.7,0-3.1-1.4-3.1-3.1   V-311h39V-299.8z M30.5-318.8v-1.4c0-1.7,1.4-3.1,3.1-3.1h32.8c1.7,0,3.1,1.4,3.1,3.1v1.4H30.5z"/><path d="M32.4-301.6h2.5c0.3,0,0.5-0.2,0.5-0.5s-0.2-0.5-0.5-0.5h-2.5c-0.3,0-0.5,0.2-0.5,0.5S32.1-301.6,32.4-301.6z"/><path d="M37-301.6h6.4c0.3,0,0.5-0.2,0.5-0.5s-0.2-0.5-0.5-0.5H37c-0.3,0-0.5,0.2-0.5,0.5S36.7-301.6,37-301.6z"/></g><g><path d="M182.5-325.3h-29c-2.8,0-5.1,2.3-5.1,5.1v20.5c0,2.8,2.3,5.1,5.1,5.1h29c1.6,0,3-1.3,3-3v-8.6v-7.5v-8.6   C185.5-324,184.2-325.3,182.5-325.3z M182.5-296.7h-29c-1.7,0-3.1-1.4-3.1-3.1v-20.5c0-1.7,1.4-3.1,3.1-3.1h29c0.5,0,1,0.4,1,1v7.6   h-6.8c-1.8,0-3.3,1.5-3.3,3.3v3c0,1.8,1.5,3.3,3.3,3.3h6.8v7.6C183.5-297.1,183.1-296.7,182.5-296.7z M183.5-307.2h-6.8   c-0.7,0-1.3-0.6-1.3-1.3v-3c0-0.7,0.6-1.3,1.3-1.3h6.8V-307.2z"/><path d="M179.2-308.3c0.9,0,1.7-0.7,1.7-1.7s-0.7-1.7-1.7-1.7s-1.7,0.7-1.7,1.7S178.3-308.3,179.2-308.3z M179.2-310.3   c0.2,0,0.3,0.2,0.3,0.3s-0.2,0.3-0.3,0.3s-0.3-0.2-0.3-0.3S179-310.3,179.2-310.3z"/></g><g><path d="M306.6-316h-2.5v-6.3c0-0.6-0.4-1-1-1h-28.2c-0.6,0-1,0.4-1,1v19.8c0,5.7,4.7,10.4,10.4,10.4h9.4c5.7,0,10.4-4.7,10.4-10.4   v-2.5h2.5c3,0,5.5-2.5,5.5-5.5C312.1-313.6,309.6-316,306.6-316z M302.1-302.5c0,4.6-3.8,8.4-8.4,8.4h-9.4c-4.6,0-8.4-3.8-8.4-8.4   v-18.8h26.2v6.3v9.1V-302.5z M306.6-307h-2.5v-7.1h2.5c1.9,0,3.5,1.6,3.5,3.5S308.5-307,306.6-307z"/><path d="M283.4-326.2c-0.1,0.3,0,0.5,0.3,0.7c0.1,0,0.1,0,0.2,0c0.2,0,0.4-0.1,0.5-0.3c0.1-0.3,1.2-2.9-0.1-4.2   c-0.8-0.8-0.7-2.8-0.6-3.6c0-0.3-0.2-0.5-0.4-0.6c-0.3,0-0.5,0.2-0.6,0.4c0,0.3-0.3,3.1,0.9,4.4   C284.2-328.6,283.7-326.8,283.4-326.2z"/><path d="M288.6-330.6c-0.1,0.3,0,0.5,0.3,0.7c0.1,0,0.1,0,0.2,0c0.2,0,0.4-0.1,0.5-0.3c0.1-0.3,1-2.6-0.1-3.7   c-0.6-0.6-0.6-2.4-0.5-3c0-0.3-0.2-0.5-0.4-0.6c-0.3,0-0.5,0.2-0.6,0.4c0,0.3-0.3,2.7,0.8,3.8C289.3-332.6,288.9-331,288.6-330.6z"/><path d="M293.9-326.2c-0.1,0.3,0,0.5,0.3,0.7c0.1,0,0.1,0,0.2,0c0.2,0,0.4-0.1,0.5-0.3c0.1-0.3,1.2-2.9-0.1-4.2   c-0.8-0.8-0.7-2.8-0.6-3.6c0-0.3-0.2-0.5-0.4-0.6c-0.3,0-0.5,0.2-0.6,0.4c0,0.3-0.3,3.1,0.9,4.4   C294.7-328.6,294.2-326.8,293.9-326.2z"/></g><g><path d="M422.1-328.5h-24.2c-4.5,0-8.2,3.7-8.2,8.2v20.6c0,2,0.7,3.9,2,5.3c0,0,0,0,0,0c0,0,0,0,0,0c1.5,1.7,3.7,2.8,6.2,2.8h24.2   c4.5,0,8.2-3.7,8.2-8.2v-20.6C430.3-324.8,426.6-328.5,422.1-328.5z M391.7-320.3c0-3.4,2.8-6.2,6.2-6.2h24.2   c3.4,0,6.2,2.8,6.2,6.2v20.6c0,0.4,0,0.9-0.1,1.3l-12.9-12.9c-0.4-0.4-1-0.4-1.4,0l-9.9,9.9l-2.6-2.6c-0.1-0.1-0.2-0.2-0.3-0.2   c-0.4-0.1-0.8-0.1-1.1,0.2l-7.4,7.4c-0.5-0.9-0.8-2-0.8-3.1V-320.3z M393.8-295l6.8-6.8l2.6,2.6c0,0,0,0,0,0s0,0,0,0l5.8,5.7h-11   C396.3-293.5,394.9-294.1,393.8-295z M422.1-293.5h-10.3l-6.5-6.5l9.2-9.2l12.8,12.8C426.2-294.7,424.3-293.5,422.1-293.5z"/><path d="M401.6-308.6c3.5,0,6.3-2.8,6.3-6.3s-2.8-6.3-6.3-6.3s-6.3,2.8-6.3,6.3S398.1-308.6,401.6-308.6z M401.6-319.3   c2.4,0,4.3,1.9,4.3,4.3s-1.9,4.3-4.3,4.3s-4.3-1.9-4.3-4.3S399.2-319.3,401.6-319.3z"/></g><g><path d="M543.8-330h-22.3c-3.7,0-6.6,3-6.6,6.6v27.2c0,3.7,3,6.6,6.6,6.6h22.3c3.7,0,6.6-3,6.6-6.6v-27.2   C550.5-327,547.5-330,543.8-330z M516.4-315.7h6v11.8h-6V-315.7z M523.9-328.5h17.7v37.5h-17.7V-328.5z M543-315.7h5.9v11.8H543   V-315.7z M549-323.3v6.2H543v-11.3h0.8C546.7-328.5,549-326.2,549-323.3z M521.5-328.5h0.8v11.3h-6v-6.2   C516.4-326.2,518.7-328.5,521.5-328.5z M516.4-296.2v-6.2h6v11.3h-0.8C518.7-291,516.4-293.3,516.4-296.2z M543.8-291H543v-11.3   h5.9v6.2C549-293.3,546.7-291,543.8-291z"/><path d="M536.5-310.5l-4.1-4.1c-0.5-0.5-1.3-0.7-2-0.4c-0.7,0.3-1.1,0.9-1.1,1.7v8.3c0,0.7,0.4,1.4,1.1,1.7   c0.2,0.1,0.5,0.1,0.7,0.1c0.5,0,0.9-0.2,1.3-0.5l4.1-4.1C537.2-308.7,537.2-309.8,536.5-310.5z M535.4-309l-4.1,4.1   c-0.1,0.1-0.3,0.1-0.3,0.1c-0.1,0-0.2-0.1-0.2-0.3v-8.3c0-0.2,0.1-0.3,0.2-0.3c0,0,0.1,0,0.1,0c0.1,0,0.1,0,0.2,0.1l4.1,4.1   C535.5-309.4,535.5-309.2,535.4-309z"/></g><g><path d="M-538.4-208.8h-17.7c-2.1,0-3.9,1.7-3.9,3.9v6.9h-7.2c-0.6,0-1,0.4-1,1v17.9c0,2.8,2.3,5.1,5.1,5.1h24.9c0,0,0.1,0,0.1,0   c2-0.1,3.6-1.8,3.6-3.8v-27.1C-534.6-207.1-536.3-208.8-538.4-208.8z M-566.3-179.1V-196h6.2v16.9c0,0,0,0,0,0   c0,1.7-1.4,3.1-3.1,3.1C-564.9-175.9-566.3-177.3-566.3-179.1z M-536.6-177.8c0,1-0.8,1.9-1.9,1.9h-20.7c0.7-0.9,1.1-1.9,1.1-3.1   c0,0,0,0,0,0V-197c0,0,0,0,0,0s0,0,0,0v-7.9c0-1,0.8-1.9,1.9-1.9h17.7c1,0,1.9,0.8,1.9,1.9V-177.8z"/><path d="M-554.9-197.7h5.2c0.4,0,0.8-0.3,0.8-0.8s-0.3-0.8-0.8-0.8h-5.2c-0.4,0-0.8,0.3-0.8,0.8S-555.4-197.7-554.9-197.7z"/><path d="M-541.6-194.7h-13.4c-0.4,0-0.8,0.3-0.8,0.8s0.3,0.8,0.8,0.8h13.4c0.4,0,0.8-0.3,0.8-0.8S-541.2-194.7-541.6-194.7z"/><path d="M-541.6-190.2h-13.4c-0.4,0-0.8,0.3-0.8,0.8s0.3,0.8,0.8,0.8h13.4c0.4,0,0.8-0.3,0.8-0.8S-541.2-190.2-541.6-190.2z"/><path d="M-541.6-185.7h-13.4c-0.4,0-0.8,0.3-0.8,0.8s0.3,0.8,0.8,0.8h13.4c0.4,0,0.8-0.3,0.8-0.8S-541.2-185.7-541.6-185.7z"/></g><path d="M-412.4-184.7l-8.3,0c-0.1,0-0.3,0-0.4,0.1c-0.1,0.1-0.2,0.1-0.3,0.2l-1.9,1.9c-4.9-2.6-9.1-6.4-12.3-11c-0.7-1-1.3-2-1.9-3  l1.9-1.9c0.1-0.1,0.2-0.2,0.2-0.3c0.1-0.1,0.1-0.3,0.1-0.4v-8.3c0-0.6-0.4-1-1-1h-11.3c-0.6,0-1,0.4-1,1c0,19.9,16.2,36.1,36.1,36.1  c0.6,0,1-0.4,1-1v-11.3C-411.4-184.3-411.9-184.7-412.4-184.7z M-420.4-182.7l6.9,0v9.3c-4.7-0.1-9.1-1.2-13.1-3.1L-420.4-182.7z   M-446.5-206.6h9.3v6.9l-6.2,6.2C-445.3-197.4-446.4-201.9-446.5-206.6z M-442.5-191.5l3.6-3.6c0.5,0.9,1.1,1.8,1.7,2.7  c3.2,4.6,7.5,8.5,12.4,11.3l-3.6,3.6C-434.4-180.6-439.4-185.6-442.5-191.5z"/><g><path d="M-309.9-210.4v-1.3c0-0.6-0.4-1-1-1s-1,0.4-1,1v1.3c-6.8,0.5-12.1,6.2-12.1,13.1v9.8c0,7.2,5.9,13.1,13.1,13.1   s13.1-5.9,13.1-13.1v-9.8C-297.8-204.2-303.1-209.9-309.9-210.4z M-310.9-208.4c6.1,0,11.1,5,11.1,11.1H-322   C-322-203.5-317-208.4-310.9-208.4z M-310.9-176.4c-6.1,0-11.1-5-11.1-11.1v-8.8h22.2v8.8C-299.8-181.4-304.8-176.4-310.9-176.4z"/><path d="M-310.9-198.9c0.9,0,1.6-0.7,1.6-1.6v-5.1c0-0.9-0.7-1.6-1.6-1.6s-1.6,0.7-1.6,1.6v5.1   C-312.5-199.6-311.8-198.9-310.9-198.9z M-311.5-205.6c0-0.4,0.3-0.6,0.6-0.6s0.6,0.3,0.6,0.6v5.1c0,0.4-0.3,0.6-0.6,0.6   s-0.6-0.3-0.6-0.6V-205.6z"/></g><g><path d="M-178.7-202.8l-6.9-6c-0.1,0-0.1-0.1-0.2-0.1c0,0-0.1-0.1-0.1-0.1c-0.1,0-0.2-0.1-0.4-0.1h-15.5c-0.6,0-1,0.4-1,1v33.2   c0,0.6,0.4,1,1,1h22.4c0.6,0,1-0.4,1-1v-27.1C-178.3-202.4-178.5-202.6-178.7-202.8z M-185.2-205.9l3.8,3.4h-3.8V-205.9z    M-200.7-175.9v-31.2h13.5v5.6c0,0.6,0.4,1,1,1h5.9v24.6H-200.7z"/><path d="M-196.9-196.6h4.4c0.4,0,0.8-0.3,0.8-0.8s-0.3-0.8-0.8-0.8h-4.4c-0.4,0-0.8,0.3-0.8,0.8S-197.3-196.6-196.9-196.6z"/><path d="M-185.4-194.2h-11.5c-0.4,0-0.8,0.3-0.8,0.8s0.3,0.8,0.8,0.8h11.5c0.4,0,0.8-0.3,0.8-0.8S-185-194.2-185.4-194.2z"/><path d="M-185.4-190.3h-11.5c-0.4,0-0.8,0.3-0.8,0.8s0.3,0.8,0.8,0.8h11.5c0.4,0,0.8-0.3,0.8-0.8S-185-190.3-185.4-190.3z"/><path d="M-185.4-186.4h-11.5c-0.4,0-0.8,0.3-0.8,0.8s0.3,0.8,0.8,0.8h11.5c0.4,0,0.8-0.3,0.8-0.8S-185-186.4-185.4-186.4z"/></g><g><path d="M-50.5-193.3c-11.4-11.4-29.9-11.4-41.3,0c-0.4,0.4-0.4,1,0,1.4c5.7,5.7,13.2,8.5,20.6,8.5s14.9-2.8,20.6-8.5   C-50.1-192.3-50.1-192.9-50.5-193.3z M-71.2-185.3c-6.9,0-13.4-2.6-18.5-7.3c5-4.7,11.6-7.3,18.5-7.3s13.4,2.6,18.5,7.3   C-57.7-187.9-64.2-185.3-71.2-185.3z"/><path d="M-76.5-192.6c0,2.9,2.4,5.3,5.3,5.3c2.9,0,5.3-2.4,5.3-5.3s-2.4-5.3-5.3-5.3C-74.1-197.9-76.5-195.5-76.5-192.6z    M-66.8-192.6c0,2.4-1.9,4.3-4.3,4.3s-4.3-1.9-4.3-4.3s1.9-4.3,4.3-4.3S-66.8-195-66.8-192.6z"/><path d="M-74.5-192.6c0,0.3,0.2,0.5,0.5,0.5s0.5-0.2,0.5-0.5c0-1.3,1.1-2.4,2.4-2.4c0.3,0,0.5-0.2,0.5-0.5s-0.2-0.5-0.5-0.5   C-73-196-74.5-194.5-74.5-192.6z"/></g><g><path d="M72.8-202.1c-0.3-0.2-0.7-0.2-1,0l-7.4,4.5v-0.9c0-2.8-2.3-5.1-5.1-5.1h-24c-2.8,0-5.1,2.3-5.1,5.1v14.4   c0,2.8,2.3,5.1,5.1,5.1h24c2.8,0,5.1-2.3,5.1-5.1v-0.9l7.4,4.5c0.2,0.1,0.3,0.1,0.5,0.1c0.2,0,0.3,0,0.5-0.1   c0.3-0.2,0.5-0.5,0.5-0.9v-20C73.3-201.6,73.1-201.9,72.8-202.1z M62.4-184c0,1.7-1.4,3.1-3.1,3.1h-24c-1.7,0-3.1-1.4-3.1-3.1   v-14.4c0-1.7,1.4-3.1,3.1-3.1h24c1.7,0,3.1,1.4,3.1,3.1v2.6v9.1V-184z M71.3-183l-6.9-4.2v-8l6.9-4.2V-183z"/><path d="M37.5-198.5c-0.9,0-1.7,0.8-1.7,1.7c0,0.9,0.8,1.7,1.7,1.7c0.9,0,1.7-0.8,1.7-1.7C39.2-197.7,38.4-198.5,37.5-198.5z    M37.5-196.5c-0.2,0-0.3-0.1-0.3-0.3s0.1-0.3,0.3-0.3c0.2,0,0.3,0.1,0.3,0.3S37.7-196.5,37.5-196.5z"/></g><path d="M174.7-191.6c1.6-1.3,2.5-3.3,2.5-5.5c0-4-3.2-7.2-7.2-7.2s-7.2,3.2-7.2,7.2c0,2.2,1,4.2,2.5,5.5c-4.2,1-7.3,4.8-7.3,9.2  v1.6c0,2.8,2.3,5.1,5.1,5.1h13.6c2.8,0,5.1-2.3,5.1-5.1v-1.6C181.9-186.9,178.8-190.6,174.7-191.6z M164.8-197.1  c0-2.9,2.3-5.2,5.2-5.2s5.2,2.3,5.2,5.2s-2.3,5.2-5.2,5.2S164.8-194.2,164.8-197.1z M179.9-180.8c0,1.7-1.4,3.1-3.1,3.1h-13.6  c-1.7,0-3.1-1.4-3.1-3.1v-1.6c0-4.1,3.4-7.5,7.5-7.5h4.9c4.1,0,7.5,3.4,7.5,7.5V-180.8z"/><g><path d="M292.5-177.7h-9.3c-1.7,0-3.1-1.4-3.1-3.1v-1.6c0-4.1,3.4-7.5,7.5-7.5h4.9c2.8,0,5.3,1.5,6.6,4c0.3,0.5,0.9,0.7,1.4,0.4   c0.5-0.3,0.7-0.9,0.4-1.4c-1.3-2.5-3.6-4.2-6.2-4.8c1.6-1.3,2.5-3.3,2.5-5.5c0-4-3.2-7.2-7.2-7.2s-7.2,3.2-7.2,7.2   c0,2.2,1,4.2,2.5,5.5c-4.2,1-7.3,4.8-7.3,9.2v1.6c0,2.8,2.3,5.1,5.1,5.1h9.3c0.6,0,1-0.4,1-1S293.1-177.7,292.5-177.7z    M284.8-197.1c0-2.9,2.3-5.2,5.2-5.2s5.2,2.3,5.2,5.2s-2.3,5.2-5.2,5.2S284.8-194.2,284.8-197.1z"/><path d="M303.3-180.3l-2.4,0v-2.4c0-0.6-0.4-1-1-1s-1,0.4-1,1v2.4l-2.4,0c-0.6,0-1,0.4-1,1s0.4,1,1,1l2.4,0v2.4c0,0.6,0.4,1,1,1   s1-0.4,1-1v-2.4l2.4,0c0.6,0,1-0.4,1-1S303.9-180.3,303.3-180.3z"/></g><g><path d="M412.5-177.7h-9.3c-1.7,0-3.1-1.4-3.1-3.1v-1.6c0-4.1,3.4-7.5,7.5-7.5h4.9c2.8,0,5.3,1.5,6.6,4c0.3,0.5,0.9,0.7,1.4,0.4   c0.5-0.3,0.7-0.9,0.4-1.4c-1.3-2.5-3.6-4.2-6.2-4.8c1.6-1.3,2.5-3.3,2.5-5.5c0-4-3.2-7.2-7.2-7.2s-7.2,3.2-7.2,7.2   c0,2.2,1,4.2,2.5,5.5c-4.2,1-7.3,4.8-7.3,9.2v1.6c0,2.8,2.3,5.1,5.1,5.1h9.3c0.6,0,1-0.4,1-1S413.1-177.7,412.5-177.7z    M404.8-197.1c0-2.9,2.3-5.2,5.2-5.2s5.2,2.3,5.2,5.2s-2.3,5.2-5.2,5.2S404.8-194.2,404.8-197.1z"/><path d="M421.4-179.3l1.7-1.7c0.4-0.4,0.4-1,0-1.4s-1-0.4-1.4,0l-1.7,1.7l-1.7-1.7c-0.4-0.4-1-0.4-1.4,0s-0.4,1,0,1.4l1.7,1.7   l-1.7,1.7c-0.4,0.4-0.4,1,0,1.4c0.2,0.2,0.5,0.3,0.7,0.3s0.5-0.1,0.7-0.3l1.7-1.7l1.7,1.7c0.2,0.2,0.5,0.3,0.7,0.3s0.5-0.1,0.7-0.3   c0.4-0.4,0.4-1,0-1.4L421.4-179.3z"/></g><g><path d="M532.5-177.7h-9.3c-1.7,0-3.1-1.4-3.1-3.1v-1.6c0-4.1,3.4-7.5,7.5-7.5h4.9c2.8,0,5.3,1.5,6.6,4c0.3,0.5,0.9,0.7,1.4,0.4   c0.5-0.3,0.7-0.9,0.4-1.4c-1.3-2.5-3.6-4.2-6.2-4.8c1.6-1.3,2.5-3.3,2.5-5.5c0-4-3.2-7.2-7.2-7.2s-7.2,3.2-7.2,7.2   c0,2.2,1,4.2,2.5,5.5c-4.2,1-7.3,4.8-7.3,9.2v1.6c0,2.8,2.3,5.1,5.1,5.1h9.3c0.6,0,1-0.4,1-1S533.1-177.7,532.5-177.7z    M524.8-197.1c0-2.9,2.3-5.2,5.2-5.2s5.2,2.3,5.2,5.2s-2.3,5.2-5.2,5.2S524.8-194.2,524.8-197.1z"/><path d="M543.1-182.4c-0.4-0.4-1-0.4-1.4,0l-4,4l-1.7-1.7c-0.4-0.4-1-0.4-1.4,0s-0.4,1,0,1.4l2.4,2.4c0,0,0,0,0,0   c0.2,0.2,0.5,0.3,0.7,0.3c0.1,0,0.3,0,0.4-0.1c0.1,0,0.2-0.1,0.3-0.2c0,0,0,0,0,0l4.8-4.8C543.4-181.4,543.4-182,543.1-182.4z"/></g><g><path d="M-547.5-57.7h-9.3c-1.7,0-3.1-1.4-3.1-3.1v-1.6c0-4.1,3.4-7.5,7.5-7.5h4.9c2.8,0,5.3,1.5,6.6,4c0.3,0.5,0.9,0.7,1.4,0.4   c0.5-0.3,0.7-0.9,0.4-1.3c-1.3-2.5-3.6-4.2-6.2-4.8c1.6-1.3,2.5-3.3,2.5-5.5c0-4-3.2-7.2-7.2-7.2s-7.2,3.2-7.2,7.2   c0,2.2,1,4.2,2.5,5.5c-4.2,1-7.3,4.8-7.3,9.2v1.6c0,2.8,2.3,5.1,5.1,5.1h9.3c0.6,0,1-0.4,1-1S-546.9-57.7-547.5-57.7z M-555.2-77.1   c0-2.9,2.3-5.2,5.2-5.2s5.2,2.3,5.2,5.2s-2.3,5.2-5.2,5.2S-555.2-74.2-555.2-77.1z"/><path d="M-536.7-61.3h-6.7c-0.6,0-1,0.4-1,1s0.4,1,1,1h6.7c0.6,0,1-0.4,1-1S-536.1-61.3-536.7-61.3z"/></g><g><path d="M-427.5-57.7h-9.3c-1.7,0-3.1-1.4-3.1-3.1v-1.6c0-4.1,3.4-7.5,7.5-7.5h4.9c2.8,0,5.3,1.5,6.6,4c0.3,0.5,0.9,0.7,1.4,0.4   c0.5-0.3,0.7-0.9,0.4-1.3c-1.3-2.5-3.6-4.2-6.2-4.8c1.6-1.3,2.5-3.3,2.5-5.5c0-4-3.2-7.2-7.2-7.2s-7.2,3.2-7.2,7.2   c0,2.2,1,4.2,2.5,5.5c-4.2,1-7.3,4.8-7.3,9.2v1.6c0,2.8,2.3,5.1,5.1,5.1h9.3c0.6,0,1-0.4,1-1S-426.9-57.7-427.5-57.7z M-435.2-77.1   c0-2.9,2.3-5.2,5.2-5.2s5.2,2.3,5.2,5.2s-2.3,5.2-5.2,5.2S-435.2-74.2-435.2-77.1z"/><path d="M-413-60.3h-8.1l1.8-1.8c0.4-0.4,0.4-1,0-1.4c-0.4-0.4-1-0.4-1.4,0l-3.4,3.5c0,0,0,0.1-0.1,0.1c0,0.1-0.1,0.1-0.1,0.2   c0,0,0,0,0,0c0,0.1,0,0.1,0,0.2c0,0.1,0,0.1,0,0.2c0,0,0,0,0,0s0,0,0,0c0,0.1,0,0.1,0,0.2c0,0.1,0,0.1,0,0.2c0,0,0,0,0,0   c0,0.1,0.1,0.1,0.1,0.2c0,0,0,0.1,0.1,0.1l3.4,3.5c0.2,0.2,0.5,0.3,0.7,0.3c0.3,0,0.5-0.1,0.7-0.3c0.4-0.4,0.4-1,0-1.4l-1.8-1.8   h8.1c0.6,0,1-0.4,1-1S-412.4-60.3-413-60.3z"/></g><g><path d="M-310.5-58.1h-9.3c-1.7,0-3.1-1.4-3.1-3.1v-1.6c0-4.1,3.4-7.5,7.5-7.5h4.9c2.8,0,5.3,1.5,6.6,4c0.3,0.5,0.9,0.7,1.4,0.4   c0.5-0.3,0.7-0.9,0.4-1.3c-1.3-2.5-3.6-4.2-6.2-4.8c1.6-1.3,2.5-3.3,2.5-5.5c0-4-3.2-7.2-7.2-7.2s-7.2,3.2-7.2,7.2   c0,2.2,1,4.2,2.5,5.5c-4.2,1-7.3,4.8-7.3,9.2v1.6c0,2.8,2.3,5.1,5.1,5.1h9.3c0.6,0,1-0.4,1-1S-310-58.1-310.5-58.1z M-318.3-77.5   c0-2.9,2.3-5.2,5.2-5.2s5.2,2.3,5.2,5.2s-2.3,5.2-5.2,5.2S-318.3-74.7-318.3-77.5z"/><path d="M-295.1-59.4c0-0.1,0-0.1,0-0.2c0-0.1,0-0.1,0-0.2c0,0,0,0,0,0c0,0,0,0,0,0c0-0.1,0-0.1,0-0.2c0-0.1,0-0.1,0-0.2   c0,0,0,0,0,0c0-0.1-0.1-0.1-0.1-0.2c0,0,0-0.1-0.1-0.1l-3.4-3.5c-0.4-0.4-1-0.4-1.4,0c-0.4,0.4-0.4,1,0,1.4l1.8,1.8h-8.1   c-0.6,0-1,0.4-1,1s0.4,1,1,1h8.1l-1.8,1.8c-0.4,0.4-0.4,1,0,1.4c0.2,0.2,0.4,0.3,0.7,0.3c0.3,0,0.5-0.1,0.7-0.3l3.4-3.5   c0,0,0-0.1,0.1-0.1C-295.2-59.3-295.1-59.3-295.1-59.4C-295.1-59.4-295.1-59.4-295.1-59.4z"/></g><path d="M-169.3-70.6c0-11.4-9.3-20.7-20.7-20.7s-20.7,9.3-20.7,20.7c0,0,0,0,0,0.1c0,0.1,0,0.2,0,0.2c0,0.6,0.4,1,1,1s1-0.4,1-1  c0-3.1,2.5-5.6,5.6-5.6s5.6,2.5,5.6,5.6c0,0.6,0.4,1,1,1s1-0.4,1-1c0-2.7,2-5,4.6-5.5v21.5c0,2-1.6,3.6-3.6,3.6s-3.6-1.6-3.6-3.6  c0-0.6-0.4-1-1-1s-1,0.4-1,1c0,3.1,2.5,5.6,5.6,5.6c3.1,0,5.6-2.5,5.6-5.6v-21.5c2.6,0.5,4.6,2.7,4.6,5.5c0,0.6,0.4,1,1,1s1-0.4,1-1  c0-3.1,2.5-5.6,5.6-5.6s5.6,2.5,5.6,5.6c0,0.6,0.4,1,1,1s1-0.4,1-1C-169.3-70.4-169.3-70.4-169.3-70.6  C-169.3-70.5-169.3-70.6-169.3-70.6z M-176.9-77.9c-2.8,0-5.3,1.5-6.6,3.8c-1.3-2.3-3.8-3.8-6.6-3.8s-5.3,1.5-6.6,3.8  c-1.3-2.3-3.8-3.8-6.6-3.8c-1.8,0-3.4,0.6-4.7,1.6c2.4-7.6,9.5-13.1,17.9-13.1s15.5,5.5,17.9,13.1  C-173.4-77.3-175.1-77.9-176.9-77.9z"/><path d="M67.5-73.8h-9.3l8.1-7.7c0.4-0.4,0.4-1,0-1.4c-0.4-0.4-1-0.4-1.4,0l-8,7.5l3.3-8.9c0.2-0.5-0.1-1.1-0.6-1.3  c-0.5-0.2-1.1,0.1-1.3,0.6l-4.1,11.2H32.5c-0.6,0-1,0.4-1,1c0,2.1,0.4,4,1,5.9c0,0,0,0.1,0.1,0.1c2.5,7.2,9.4,12.5,17.4,12.5  c10.2,0,18.5-8.3,18.5-18.5C68.5-73.3,68-73.8,67.5-73.8z M65.8-68.2H34.2c-0.3-1.1-0.5-2.3-0.6-3.6h32.8  C66.3-70.6,66.1-69.4,65.8-68.2z M50-56.3c-6.7,0-12.5-4.1-15.1-9.9h30.2C62.5-60.4,56.7-56.3,50-56.3z"/><path d="M186-86c-16.2,0-29.4,13.2-29.4,29.4c0,0.4,0.3,0.8,0.8,0.8c16.2,0,29.4-13.2,29.4-29.4C186.8-85.6,186.4-86,186-86z   M182.1-72.2h-8.3l2.8-2.8c0,0,0,0,0,0l8.7-8.7C185-79.6,183.9-75.7,182.1-72.2z M175.7-75.5l-7.6,7.6v-9.9c2.3-1.9,4.8-3.4,7.6-4.6  V-75.5z M176.7-82.8c2.5-0.9,5.1-1.4,7.9-1.6l-7.9,7.9V-82.8z M167.1-77v10l-4.5,4.5l0-9.2C163.8-73.6,165.4-75.4,167.1-77z   M158.2-58.1c0.2-4.3,1.4-8.3,3.4-11.9l0,8.5L158.2-58.1z M162.4-60.8C162.4-60.8,162.4-60.8,162.4-60.8l2.4-2.4h9.8  c-4.4,3.4-9.7,5.5-15.6,5.8L162.4-60.8z M175.7-64.2h-10l2.2-2.2c0,0,0,0,0,0l4.8-4.8h8.8C180-68.6,178-66.2,175.7-64.2z"/><path d="M306-88.7h-9.4c0.4-0.6,0.6-1.3,0.6-2.1c0-2.3-1.8-4.1-4.1-4.1c-1.2,0-2.3,0.6-3.1,1.4c-0.8-0.9-1.8-1.4-3.1-1.4  c-2.3,0-4.1,1.8-4.1,4.1c0,0.8,0.2,1.5,0.6,2.1H274c-0.6,0-1,0.4-1,1v4.3c0,0.6,0.4,1,1,1h1.6v21.9c0,0.6,0.4,1,1,1h26.9  c0.6,0,1-0.4,1-1v-21.9h1.6c0.6,0,1-0.4,1-1v-4.3C307-88.3,306.5-88.7,306-88.7z M293.1-92.9c1.2,0,2.1,0.9,2.1,2.1  s-0.9,2.1-2.1,2.1c-1.2,0-2.1-0.9-2.1-2.1S291.9-92.9,293.1-92.9z M284.8-90.8c0-1.2,0.9-2.1,2.1-2.1c1.2,0,2.1,0.9,2.1,2.1  s-0.9,2.1-2.1,2.1C285.8-88.7,284.8-89.7,284.8-90.8z M277.5-82.5h12v9.7h-12V-82.5z M277.5-71.7h12v10.1h-12V-71.7z M290.5-61.6  v-10.1h11.9v10.1H290.5z M302.4-72.7h-11.9v-9.7h11.9V-72.7z M305-84.5h-1.6h-26.9H275v-2.3h30V-84.5z"/><g><path d="M422.5-85.3h-5v-3.4c0-1.3-0.6-2.4-1.6-3.1c-1-0.7-2.3-0.9-3.5-0.4l-19,7c-2.7,0.1-4.8,2.3-4.8,5.1v20.5   c0,2.8,2.3,5.1,5.1,5.1h29c1.6,0,3-1.3,3-3v-8.6v-7.5v-8.6C425.5-84,424.2-85.3,422.5-85.3z M413.1-90.5c0.6-0.2,1.2-0.1,1.7,0.2   c0.5,0.3,0.8,0.9,0.8,1.5v3.4h-16.4L413.1-90.5z M422.5-56.7h-29c-1.7,0-3.1-1.4-3.1-3.1v-20.5c0-1.7,1.4-3.1,3.1-3.1h23h6   c0.5,0,1,0.4,1,1v7.6h-6.8c-1.8,0-3.3,1.5-3.3,3.3v3c0,1.8,1.5,3.3,3.3,3.3h6.8v7.6C423.5-57.1,423.1-56.7,422.5-56.7z M423.5-67.2   h-6.8c-0.7,0-1.3-0.6-1.3-1.3v-3c0-0.7,0.6-1.3,1.3-1.3h6.8V-67.2z"/><path d="M419.2-68.3c0.9,0,1.7-0.7,1.7-1.7s-0.7-1.7-1.7-1.7s-1.7,0.7-1.7,1.7S418.3-68.3,419.2-68.3z M419.2-70.3   c0.2,0,0.3,0.2,0.3,0.3s-0.2,0.3-0.3,0.3s-0.3-0.2-0.3-0.3S419-70.3,419.2-70.3z"/></g><g><path d="M-61.6-80l-9.7-8.8c-0.4-0.3-1-0.3-1.3,0l-9.7,8.8c-0.2,0.2-0.3,0.5-0.3,0.7v20.5c0,0.6,0.4,1,1,1h19.4c0.6,0,1-0.4,1-1   v-20.5C-61.3-79.6-61.4-79.8-61.6-80z M-72-86.8l8.7,7.9v14.9h-17.4v-14.9L-72-86.8z M-80.7-59.8v-2.1h17.4v2.1H-80.7z"/><path d="M-72-73.1c1.7,0,3.2-1.4,3.2-3.2s-1.4-3.2-3.2-3.2c-1.7,0-3.2,1.4-3.2,3.2S-73.8-73.1-72-73.1z M-72-77.4   c0.6,0,1.2,0.5,1.2,1.2s-0.5,1.2-1.2,1.2s-1.2-0.5-1.2-1.2S-72.7-77.4-72-77.4z"/></g><g><path d="M541.9-81.8h-2c-0.2-4.5-3.8-8.1-8.4-8.1c-4.5,0-8.2,3.6-8.4,8.1h-2.4c-5.5,0-10,4.5-10,10v9.3c0,3.2,2.6,5.7,5.7,5.7h29.6   c3.2,0,5.7-2.6,5.7-5.7v-9.3C551.9-77.3,547.4-81.8,541.9-81.8z M531.5-86.9c2.9,0,5.2,2.3,5.4,5.1h-10.7   C526.3-84.6,528.6-86.9,531.5-86.9z M549.9-62.5c0,2.1-1.7,3.7-3.7,3.7h-29.6c-2.1,0-3.7-1.7-3.7-3.7v-9.3c0-4.4,3.6-8,8-8h21.1   c4.4,0,8,3.6,8,8V-62.5z"/><path d="M539.2-71.6h-22.3c-0.3,0-0.5,0.2-0.5,0.5s0.2,0.5,0.5,0.5h22.3c0.3,0,0.5-0.2,0.5-0.5S539.5-71.6,539.2-71.6z"/><path d="M523.6-68h-6.7c-0.3,0-0.5,0.2-0.5,0.5s0.2,0.5,0.5,0.5h6.7c0.3,0,0.5-0.2,0.5-0.5S523.9-68,523.6-68z"/></g><path d="M-529.6,42.7h-7.5l-8.7-8.7c-2.3-2.3-6-2.3-8.3,0l-8.7,8.7h-7.5c-0.6,0-1,0.4-1,1v3.5c0,0.6,0.4,1,1,1h0.3l6,18.8  c0.1,0.4,0.5,0.7,1,0.7h26.2c0.4,0,0.8-0.3,1-0.7l6-18.8h0.3c0.6,0,1-0.4,1-1v-3.5C-528.6,43.2-529.1,42.7-529.6,42.7z M-552.8,35.4  c1.5-1.5,4-1.5,5.5,0l7.3,7.3h-20.1L-552.8,35.4z M-569.4,44.7h38.7v1.5h0h-38.7h0V44.7z M-537.6,65.7h-24.7l-5.6-17.5h36  L-537.6,65.7z"/><g><path d="M-409.6,42.7h-7.5l-8.7-8.7c-2.3-2.3-6-2.3-8.3,0l-8.7,8.7h-7.5c-0.6,0-1,0.4-1,1v3.5c0,0.6,0.4,1,1,1h0.3l6,18.8   c0.1,0.4,0.5,0.7,1,0.7h18c0.2,0,0.3-0.1,0.5-0.1c1.6,2,4,3.2,6.7,3.2c4.7,0,8.5-3.8,8.5-8.5c0-2.5-1.1-4.8-2.9-6.4l2.5-7.8h0.3   c0.6,0,1-0.4,1-1v-3.5C-408.6,43.2-409.1,42.7-409.6,42.7z M-432.8,35.4c1.5-1.5,4-1.5,5.5,0l7.3,7.3h-20.1L-432.8,35.4z    M-449.4,44.7h38.7v1.5h0h-38.7h0V44.7z M-411.5,62.3c0,3.6-2.9,6.5-6.5,6.5s-6.5-2.9-6.5-6.5s2.9-6.5,6.5-6.5   S-411.5,58.8-411.5,62.3z M-414.1,54.8c-1.2-0.6-2.5-0.9-3.9-0.9c-4.7,0-8.5,3.8-8.5,8.5c0,1.2,0.3,2.4,0.7,3.4h-16.6l-5.6-17.5h36   L-414.1,54.8z"/><path d="M-417,61.3v-3c0-0.6-0.4-1-1-1s-1,0.4-1,1v3h-3c-0.6,0-1,0.4-1,1s0.4,1,1,1h3v3c0,0.6,0.4,1,1,1s1-0.4,1-1v-3h3   c0.6,0,1-0.4,1-1s-0.4-1-1-1H-417z"/></g><g><path d="M-289.6,42.7h-7.5l-8.7-8.7c-2.3-2.3-6-2.3-8.3,0l-8.7,8.7h-7.5c-0.6,0-1,0.4-1,1v3.5c0,0.6,0.4,1,1,1h0.3l6,18.8   c0.1,0.4,0.5,0.7,1,0.7h18c0.2,0,0.3-0.1,0.5-0.1c1.6,2,4,3.2,6.7,3.2c4.7,0,8.5-3.8,8.5-8.5c0-2.5-1.1-4.8-2.9-6.4l2.5-7.8h0.3   c0.6,0,1-0.4,1-1v-3.5C-288.6,43.2-289.1,42.7-289.6,42.7z M-312.8,35.4c1.5-1.5,4-1.5,5.5,0l7.3,7.3h-20.1L-312.8,35.4z    M-329.4,44.7h38.7v1.5h0h-38.7h0V44.7z M-291.5,62.3c0,3.6-2.9,6.5-6.5,6.5s-6.5-2.9-6.5-6.5s2.9-6.5,6.5-6.5   S-291.5,58.8-291.5,62.3z M-294.1,54.8c-1.2-0.6-2.5-0.9-3.9-0.9c-4.7,0-8.5,3.8-8.5,8.5c0,1.2,0.3,2.4,0.7,3.4h-16.6l-5.6-17.5h36   L-294.1,54.8z"/><path d="M-302,61.3c-0.6,0-1,0.4-1,1s0.4,1,1,1h8c0.6,0,1-0.4,1-1s-0.4-1-1-1H-302z"/></g><g><path d="M-169.6,42.7h-7.5l-8.7-8.7c-2.3-2.3-6-2.3-8.3,0l-8.7,8.7h-7.5c-0.6,0-1,0.4-1,1v3.5c0,0.6,0.4,1,1,1h0.3l6,18.8   c0.1,0.4,0.5,0.7,1,0.7h18c0.2,0,0.3-0.1,0.5-0.1c1.6,2,4,3.2,6.7,3.2c4.7,0,8.5-3.8,8.5-8.5c0-2.5-1.1-4.8-2.9-6.4l2.5-7.8h0.3   c0.6,0,1-0.4,1-1v-3.5C-168.6,43.2-169.1,42.7-169.6,42.7z M-192.8,35.4c1.5-1.5,4-1.5,5.5,0l7.3,7.3h-20.1L-192.8,35.4z    M-209.4,44.7h38.7v1.5h0h-38.7h0V44.7z M-171.5,62.3c0,3.6-2.9,6.5-6.5,6.5s-6.5-2.9-6.5-6.5s2.9-6.5,6.5-6.5   S-171.5,58.8-171.5,62.3z M-174.1,54.8c-1.2-0.6-2.5-0.9-3.9-0.9c-4.7,0-8.5,3.8-8.5,8.5c0,1.2,0.3,2.4,0.7,3.4h-16.6l-5.6-17.5h36   L-174.1,54.8z"/><path d="M-174.5,58.8c-0.4-0.4-1-0.4-1.4,0l-2.1,2.1l-2.1-2.1c-0.4-0.4-1-0.4-1.4,0s-0.4,1,0,1.4l2.1,2.1l-2.1,2.1   c-0.4,0.4-0.4,1,0,1.4c0.2,0.2,0.5,0.3,0.7,0.3s0.5-0.1,0.7-0.3l2.1-2.1l2.1,2.1c0.2,0.2,0.5,0.3,0.7,0.3s0.5-0.1,0.7-0.3   c0.4-0.4,0.4-1,0-1.4l-2.1-2.1l2.1-2.1C-174.1,59.8-174.1,59.2-174.5,58.8z"/></g><g><path d="M-49.6,42.7h-7.5l-8.7-8.7c-2.3-2.3-6-2.3-8.3,0l-8.7,8.7h-7.5c-0.6,0-1,0.4-1,1v3.5c0,0.6,0.4,1,1,1h0.3l6,18.8   c0.1,0.4,0.5,0.7,1,0.7h18c0.2,0,0.3-0.1,0.5-0.1c1.6,2,4,3.2,6.7,3.2c4.7,0,8.5-3.8,8.5-8.5c0-2.5-1.1-4.8-2.9-6.4l2.5-7.8h0.3   c0.6,0,1-0.4,1-1v-3.5C-48.6,43.2-49.1,42.7-49.6,42.7z M-72.8,35.4c1.5-1.5,4-1.5,5.5,0l7.3,7.3h-20.1L-72.8,35.4z M-89.4,44.7   h38.7v1.5h0h-38.7h0V44.7z M-51.5,62.3c0,3.6-2.9,6.5-6.5,6.5s-6.5-2.9-6.5-6.5s2.9-6.5,6.5-6.5S-51.5,58.8-51.5,62.3z M-54.1,54.8   c-1.2-0.6-2.5-0.9-3.9-0.9c-4.7,0-8.5,3.8-8.5,8.5c0,1.2,0.3,2.4,0.7,3.4h-16.6L-88,48.2h36L-54.1,54.8z"/><path d="M-54.6,60.1l-5.4,3.8l-1-1.7c-0.3-0.5-0.9-0.6-1.4-0.4c-0.5,0.3-0.6,0.9-0.4,1.4l1.5,2.6c0,0,0,0,0,0c0,0,0,0,0,0   c0,0,0,0,0,0c0.1,0.1,0.2,0.2,0.3,0.3c0,0,0,0,0,0c0.1,0.1,0.3,0.1,0.4,0.1c0.1,0,0.2,0,0.3,0c0,0,0.1,0,0.1,0c0,0,0.1,0,0.1-0.1   c0,0,0,0,0,0c0,0,0,0,0,0l6.3-4.4c0.5-0.3,0.6-0.9,0.2-1.4C-53.5,59.9-54.1,59.8-54.6,60.1z"/></g><path d="M70.4,42.7h-7.5L54.2,34c-2.3-2.3-6-2.3-8.3,0l-8.7,8.7h-7.5c-0.6,0-1,0.4-1,1v3.5c0,0.6,0.4,1,1,1h0.3L36,67  c0.1,0.4,0.5,0.7,1,0.7h18c0.2,0,0.3-0.1,0.5-0.1c0.2,0.2,0.4,0.5,0.6,0.7c0,0,0,0,0,0c0,0,0,0,0,0c1.5,1.6,3.7,2.5,6,2.5  c4.7,0,8.5-3.8,8.5-8.5c0-1.9-0.6-3.7-1.7-5.1c0,0,0,0,0,0c0,0,0,0,0,0c-0.3-0.5-0.7-0.9-1.2-1.2l2.5-7.8h0.3c0.6,0,1-0.4,1-1v-3.5  C71.4,43.2,70.9,42.7,70.4,42.7z M47.2,35.4c1.5-1.5,4-1.5,5.5,0l7.3,7.3H39.9L47.2,35.4z M30.6,44.7h38.7v1.5h0H30.6h0V44.7z   M66.6,57.8l-9.8,8.5c-0.8-1.1-1.3-2.4-1.3-3.9c0-3.6,2.9-6.5,6.5-6.5C63.8,55.8,65.4,56.6,66.6,57.8z M62,68.8  c-1.4,0-2.7-0.4-3.8-1.2l9.5-8.2c0.5,0.9,0.7,1.9,0.7,3C68.5,65.9,65.6,68.8,62,68.8z M65.9,54.8c-1.2-0.6-2.5-0.9-3.9-0.9  c-4.7,0-8.5,3.8-8.5,8.5c0,1.2,0.3,2.4,0.7,3.4H37.6L32,48.2h36L65.9,54.8z"/><g><path d="M193.2,58.7h-28.6c-1.2,0-2.3-0.8-2.8-1.9l-0.2-0.6h25.5c1.8,0,3.3-1.5,3.3-3.3V41.8c0-1.7-1.3-3.1-3-3.3L161.3,36   c-0.6-0.1-1,0.4-1.1,0.9c-0.1,0.5,0.3,1,0.9,1.1l26.2,2.5c0.7,0.1,1.2,0.6,1.2,1.3v11.1c0,0.7-0.6,1.3-1.3,1.3H161l-5.1-19.5   c-0.1-0.4-0.5-0.7-1-0.7h-8.2c-0.6,0-1,0.4-1,1s0.4,1,1,1h7.4l5.1,19.6l0,0c0,0,0,0,0,0l0.7,1.9c0.7,1.9,2.6,3.2,4.6,3.2h28.6   c0.6,0,1-0.4,1-1S193.8,58.7,193.2,58.7z"/><circle cx="169.7" cy="63.9" r="2.2"/><circle cx="186.7" cy="63.9" r="2.2"/></g><g><path d="M310.5,52.9v-3.8c4.1-0.6,7.3-4.1,7.3-8.4c0-4.7-3.8-8.5-8.5-8.5c-3.7,0-6.9,2.4-8,5.7l-19.9-2c-0.5,0-1,0.3-1.1,0.9   c-0.1,0.5,0.3,1,0.9,1.1l19.7,2c0,0.3,0,0.5,0,0.8c0,4.4,3.4,8.1,7.7,8.5v3.7c0,0.7-0.6,1.3-1.3,1.3H281l-5.1-19.5   c-0.1-0.4-0.5-0.7-1-0.7h-8.2c-0.6,0-1,0.4-1,1s0.4,1,1,1h7.4l5.1,19.6l0,0c0,0,0,0,0,0l0.7,1.9c0.7,1.9,2.6,3.2,4.6,3.2h28.6   c0.6,0,1-0.4,1-1s-0.4-1-1-1h-28.6c-1.2,0-2.3-0.8-2.8-1.9l-0.2-0.6h25.5C309,56.2,310.5,54.7,310.5,52.9z M302.8,40.7   c0-3.6,2.9-6.5,6.5-6.5s6.5,2.9,6.5,6.5s-2.9,6.5-6.5,6.5S302.8,44.3,302.8,40.7z"/><circle cx="289.7" cy="63.9" r="2.2"/><circle cx="306.7" cy="63.9" r="2.2"/><path d="M310.3,44.8v-3l3,0c0.6,0,1-0.4,1-1c0-0.6-0.4-1-1-1l-3,0v-3c0-0.6-0.4-1-1-1s-1,0.4-1,1v3l-3,0c-0.6,0-1,0.4-1,1   c0,0.6,0.4,1,1,1l3,0v3c0,0.6,0.4,1,1,1S310.3,45.3,310.3,44.8z"/></g><g><path d="M430.5,52.9v-3.8c4.1-0.6,7.3-4.1,7.3-8.4c0-4.7-3.8-8.5-8.5-8.5c-3.7,0-6.8,2.4-8,5.6l-20-1.9c-0.6-0.1-1,0.4-1.1,0.9   c-0.1,0.5,0.4,1,0.9,1.1l19.7,1.9c0,0.3,0,0.6,0,0.9c0,4.4,3.4,8.1,7.7,8.5v3.7c0,0.7-0.6,1.3-1.3,1.3H401l-5.1-19.5   c-0.1-0.4-0.5-0.7-1-0.7h-8.2c-0.6,0-1,0.4-1,1s0.4,1,1,1h7.4l5.1,19.6l0,0c0,0,0,0,0,0l0.7,1.9c0.7,1.9,2.6,3.2,4.6,3.2h28.6   c0.6,0,1-0.4,1-1s-0.4-1-1-1h-28.6c-1.2,0-2.3-0.8-2.8-1.9l-0.2-0.6h25.5C429,56.2,430.5,54.7,430.5,52.9z M422.8,40.7   c0-3.6,2.9-6.5,6.5-6.5s6.5,2.9,6.5,6.5s-2.9,6.5-6.5,6.5S422.8,44.3,422.8,40.7z"/><circle cx="409.7" cy="63.9" r="2.2"/><circle cx="426.7" cy="63.9" r="2.2"/><path d="M434.3,40.7c0-0.6-0.4-1-1-1l-8,0c-0.6,0-1,0.4-1,1c0,0.6,0.4,1,1,1l8,0C433.8,41.7,434.3,41.3,434.3,40.7z"/></g><g><path d="M550.5,52.9v-3.8c4.1-0.6,7.3-4.1,7.3-8.4c0-4.7-3.8-8.5-8.5-8.5c-3.7,0-6.8,2.4-8,5.6l-20-1.9c-0.6-0.1-1,0.4-1.1,0.9   c-0.1,0.5,0.4,1,0.9,1.1l19.7,1.9c0,0.3,0,0.6,0,0.9c0,4.4,3.4,8.1,7.7,8.5v3.7c0,0.7-0.6,1.3-1.3,1.3H521l-5.1-19.5   c-0.1-0.4-0.5-0.7-1-0.7h-8.2c-0.6,0-1,0.4-1,1s0.4,1,1,1h7.4l5.1,19.6l0,0c0,0,0,0,0,0l0.7,1.9c0.7,1.9,2.6,3.2,4.6,3.2h28.6   c0.6,0,1-0.4,1-1s-0.4-1-1-1h-28.6c-1.2,0-2.3-0.8-2.8-1.9l-0.2-0.6h25.5C549,56.2,550.5,54.7,550.5,52.9z M542.8,40.7   c0-3.6,2.9-6.5,6.5-6.5s6.5,2.9,6.5,6.5s-2.9,6.5-6.5,6.5S542.8,44.3,542.8,40.7z"/><circle cx="529.7" cy="63.9" r="2.2"/><circle cx="546.7" cy="63.9" r="2.2"/><path d="M551.4,44.3c0.2,0.2,0.5,0.3,0.7,0.3s0.5-0.1,0.7-0.3c0.4-0.4,0.4-1,0-1.4l-2.1-2.1l2.1-2.1c0.4-0.4,0.4-1,0-1.4   s-1-0.4-1.4,0l-2.1,2.1l-2.1-2.1c-0.4-0.4-1-0.4-1.4,0s-0.4,1,0,1.4l2.1,2.1l-2.1,2.1c-0.4,0.4-0.4,1,0,1.4   c0.2,0.2,0.5,0.3,0.7,0.3s0.5-0.1,0.7-0.3l2.1-2.1L551.4,44.3z"/></g><g><path d="M-529.5,172.9v-3.8c4.1-0.6,7.3-4.1,7.3-8.4c0-4.7-3.8-8.5-8.5-8.5c-3.7,0-6.8,2.4-8,5.6l-20-1.9c-0.6-0.1-1,0.4-1.1,0.9   c-0.1,0.5,0.4,1,0.9,1.1l19.7,1.9c0,0.3,0,0.6,0,0.9c0,4.4,3.4,8.1,7.7,8.5v3.7c0,0.7-0.6,1.3-1.3,1.3H-559l-5.1-19.5   c-0.1-0.4-0.5-0.7-1-0.7h-8.2c-0.6,0-1,0.4-1,1s0.4,1,1,1h7.4l5.1,19.6l0.7,2c0.7,1.9,2.6,3.2,4.6,3.2h28.6c0.6,0,1-0.4,1-1   s-0.4-1-1-1h-28.6c-1.2,0-2.3-0.8-2.7-1.9l-0.2-0.6h25.5C-531,176.2-529.5,174.7-529.5,172.9z M-537.2,160.7c0-3.6,2.9-6.5,6.5-6.5   s6.5,2.9,6.5,6.5s-2.9,6.5-6.5,6.5S-537.2,164.3-537.2,160.7z"/><circle cx="-550.3" cy="183.9" r="2.2"/><circle cx="-533.3" cy="183.9" r="2.2"/><path d="M-526,160.1c0.5-0.3,0.6-0.9,0.2-1.4s-0.9-0.6-1.4-0.2l-5.4,3.8l-1-1.7c-0.3-0.5-0.9-0.6-1.4-0.4c-0.5,0.3-0.6,0.9-0.4,1.4   l1.5,2.6c0,0,0,0,0,0c0,0,0,0,0,0c0,0,0,0,0,0c0.1,0.1,0.2,0.2,0.3,0.3c0,0,0,0,0,0c0.1,0.1,0.3,0.1,0.4,0.1c0.1,0,0.2,0,0.3,0   c0,0,0.1,0,0.1,0c0,0,0.1,0,0.1-0.1c0,0,0,0,0,0c0,0,0,0,0,0L-526,160.1z"/></g><g><path d="M-409.5,172.9v-3.8c4.1-0.6,7.3-4.1,7.3-8.4c0-1.8-0.6-3.5-1.6-4.9c0,0,0,0,0,0c0,0,0,0,0,0c-1.5-2.1-4-3.5-6.9-3.5   c-3.7,0-6.8,2.4-8,5.6l-20-1.9c-0.6-0.1-1,0.4-1.1,0.9s0.4,1,0.9,1.1l19.7,1.9c0,0.3,0,0.6,0,0.9c0,2,0.7,3.8,1.8,5.2c0,0,0,0,0,0   c0,0,0,0,0,0c1.4,1.8,3.5,3,5.9,3.2v3.7c0,0.7-0.6,1.3-1.3,1.3H-439l-5.1-19.5c-0.1-0.4-0.5-0.7-1-0.7h-8.2c-0.6,0-1,0.4-1,1   s0.4,1,1,1h7.4l5.1,19.6l0.7,2c0.7,1.9,2.6,3.2,4.6,3.2h28.6c0.6,0,1-0.4,1-1s-0.4-1-1-1h-28.6c-1.2,0-2.3-0.8-2.7-1.9l-0.2-0.6   h25.5C-411,176.2-409.5,174.7-409.5,172.9z M-410.7,167.2c-1.7,0-3.2-0.7-4.4-1.7l10.2-7.7c0.4,0.9,0.7,1.9,0.7,2.9   C-404.2,164.3-407.2,167.2-410.7,167.2z M-410.7,154.2c1.8,0,3.5,0.8,4.7,2l-10.3,7.7c-0.5-0.9-0.8-2-0.8-3.2   C-417.2,157.2-414.3,154.2-410.7,154.2z"/><circle cx="-430.3" cy="183.9" r="2.2"/><circle cx="-413.3" cy="183.9" r="2.2"/></g><path d="M177.3,167.4l-12.6-8.6c-1-0.7-2.2-0.7-3.2-0.2c-1,0.5-1.7,1.6-1.7,2.7v17.3c0,1.2,0.6,2.2,1.7,2.7c0.5,0.2,1,0.4,1.4,0.4  c0.6,0,1.2-0.2,1.8-0.5l12.6-8.6c0.8-0.6,1.4-1.5,1.4-2.6S178.1,168,177.3,167.4z M176.1,170.9l-12.6,8.6c-0.3,0.2-0.8,0.3-1.1,0.1  c-0.4-0.2-0.6-0.6-0.6-1v-17.3c0-0.4,0.2-0.8,0.6-1c0.2-0.1,0.3-0.1,0.5-0.1c0.2,0,0.4,0.1,0.6,0.2l12.6,8.6  c0.3,0.2,0.5,0.5,0.5,0.9S176.4,170.7,176.1,170.9z"/><g><path d="M307.6,167.4l-12.6-8.6c-1-0.7-2.2-0.7-3.2-0.2c-1,0.5-1.7,1.6-1.7,2.7v17.3c0,1.2,0.6,2.2,1.7,2.7c0.5,0.2,1,0.4,1.4,0.4   c0.6,0,1.2-0.2,1.8-0.5l12.6-8.6c0.8-0.6,1.4-1.5,1.4-2.6S308.4,168,307.6,167.4z M306.4,170.9l-12.6,8.6c-0.3,0.2-0.8,0.3-1.1,0.1   c-0.4-0.2-0.6-0.6-0.6-1v-17.3c0-0.4,0.2-0.8,0.6-1c0.2-0.1,0.3-0.1,0.5-0.1c0.2,0,0.4,0.1,0.6,0.2l12.6,8.6   c0.3,0.2,0.5,0.5,0.5,0.9S306.7,170.7,306.4,170.9z"/><path d="M288.6,167.4l-12.6-8.6c-1-0.7-2.2-0.7-3.2-0.2c-1,0.5-1.7,1.6-1.7,2.7v17.3c0,1.2,0.6,2.2,1.7,2.7c0.5,0.2,1,0.4,1.4,0.4   c0.6,0,1.2-0.2,1.8-0.5l12.6-8.6c0.8-0.6,1.4-1.5,1.4-2.6S289.4,168,288.6,167.4z M287.4,170.9l-12.6,8.6c-0.3,0.2-0.8,0.3-1.1,0.1   c-0.4-0.2-0.6-0.6-0.6-1v-17.3c0-0.4,0.2-0.8,0.6-1c0.2-0.1,0.3-0.1,0.5-0.1c0.2,0,0.4,0.1,0.6,0.2l12.6,8.6   c0.3,0.2,0.5,0.5,0.5,0.9S287.7,170.7,287.4,170.9z"/></g><g><path d="M408.3,158.6c-1-0.5-2.2-0.5-3.2,0.2l-12.6,8.6c-0.8,0.6-1.4,1.5-1.4,2.6s0.5,2,1.4,2.6l12.6,8.6c0.5,0.4,1.1,0.5,1.8,0.5   c0.5,0,1-0.1,1.4-0.4c1-0.5,1.7-1.6,1.7-2.7v-17.3C409.9,160.2,409.3,159.1,408.3,158.6z M407.9,178.6c0,0.4-0.2,0.8-0.6,1   c-0.4,0.2-0.8,0.2-1.1-0.1l-12.6-8.6c-0.3-0.2-0.5-0.5-0.5-0.9s0.2-0.7,0.5-0.9l12.6-8.6c0.2-0.1,0.4-0.2,0.6-0.2   c0.2,0,0.4,0,0.5,0.1c0.4,0.2,0.6,0.6,0.6,1V178.6z"/><path d="M427.3,158.6c-1-0.5-2.2-0.5-3.2,0.2l-12.6,8.6c-0.8,0.6-1.4,1.5-1.4,2.6s0.5,2,1.4,2.6l12.6,8.6c0.5,0.4,1.1,0.5,1.8,0.5   c0.5,0,1-0.1,1.4-0.4c1-0.5,1.7-1.6,1.7-2.7v-17.3C428.9,160.2,428.3,159.1,427.3,158.6z M426.9,178.6c0,0.4-0.2,0.8-0.6,1   c-0.4,0.2-0.8,0.2-1.1-0.1l-12.6-8.6c-0.3-0.2-0.5-0.5-0.5-0.9s0.2-0.7,0.5-0.9l12.6-8.6c0.2-0.1,0.4-0.2,0.6-0.2   c0.2,0,0.4,0,0.5,0.1c0.4,0.2,0.6,0.6,0.6,1V178.6z"/></g><g><path d="M537.3,167.4l-12.6-8.6c-1-0.7-2.2-0.7-3.2-0.2c-1,0.5-1.7,1.6-1.7,2.7v17.3c0,1.2,0.6,2.2,1.7,2.7c0.5,0.2,1,0.4,1.4,0.4   c0.6,0,1.2-0.2,1.8-0.5l12.6-8.6c0.8-0.6,1.4-1.5,1.4-2.6S538.1,168,537.3,167.4z M536.1,170.9l-12.6,8.6c-0.3,0.2-0.8,0.3-1.1,0.1   c-0.4-0.2-0.6-0.6-0.6-1v-17.3c0-0.4,0.2-0.8,0.6-1c0.2-0.1,0.3-0.1,0.5-0.1c0.2,0,0.4,0.1,0.6,0.2l12.6,8.6   c0.3,0.2,0.5,0.5,0.5,0.9S536.4,170.7,536.1,170.9z"/><path d="M540.4,159.2c-0.7,0-1.2,0.6-1.2,1.2v19c0,0.7,0.6,1.2,1.2,1.2s1.2-0.6,1.2-1.2v-19C541.7,159.8,541.1,159.2,540.4,159.2z"/><path d="M549.4,159.2c-0.7,0-1.2,0.6-1.2,1.2v19c0,0.7,0.6,1.2,1.2,1.2s1.2-0.6,1.2-1.2v-19C550.7,159.8,550.1,159.2,549.4,159.2z"/></g><g><path d="M-545.1,301.4h-25.5c-0.4,0-0.7-0.3-0.7-0.7v-24.3c0-0.3,0.2-0.5,0.4-0.6l16,12.7c2.6,1.8,6,1.8,8.6-0.1l15.8-12.6   c0.2,0.1,0.4,0.3,0.4,0.6v12.1c0,0.6,0.4,1,1,1s1-0.4,1-1v-12.1c0-1.5-1.2-2.7-2.7-2.7h-39.8c-1.5,0-2.7,1.2-2.7,2.7v24.3   c0,1.5,1.2,2.7,2.7,2.7h25.5c0.6,0,1-0.4,1-1S-544.6,301.4-545.1,301.4z M-547.5,286.9c-1.9,1.3-4.4,1.3-6.2,0.1l-14-11.1h34.1   L-547.5,286.9z"/><path d="M-535.7,288.1c-5,0-9,4-9,9s4,9,9,9s9-4,9-9S-530.8,288.1-535.7,288.1z M-535.7,304.2c-3.9,0-7-3.2-7-7c0-3.9,3.2-7,7-7   c3.9,0,7,3.2,7,7C-528.7,301-531.9,304.2-535.7,304.2z"/><path d="M-531.4,296.1h-3.3v-3.3c0-0.6-0.4-1-1-1s-1,0.4-1,1v3.3h-3.3c-0.6,0-1,0.4-1,1s0.4,1,1,1h3.3v3.3c0,0.6,0.4,1,1,1   s1-0.4,1-1v-3.3h3.3c0.6,0,1-0.4,1-1S-530.9,296.1-531.4,296.1z"/></g><g><path d="M-425.1,301.4h-25.5c-0.4,0-0.7-0.3-0.7-0.7v-24.3c0-0.3,0.2-0.5,0.4-0.6l16,12.7c2.6,1.8,6,1.8,8.6-0.1l15.8-12.6   c0.2,0.1,0.4,0.3,0.4,0.6v12.1c0,0.6,0.4,1,1,1s1-0.4,1-1v-12.1c0-1.5-1.2-2.7-2.7-2.7h-39.8c-1.5,0-2.7,1.2-2.7,2.7v24.3   c0,1.5,1.2,2.7,2.7,2.7h25.5c0.6,0,1-0.4,1-1S-424.6,301.4-425.1,301.4z M-427.5,286.9c-1.9,1.3-4.4,1.3-6.2,0.1l-14-11.1h34.1   L-427.5,286.9z"/><path d="M-415.7,288.1c-5,0-9,4-9,9s4,9,9,9s9-4,9-9S-410.8,288.1-415.7,288.1z M-415.7,304.2c-3.9,0-7-3.2-7-7c0-3.9,3.2-7,7-7   c3.9,0,7,3.2,7,7C-408.7,301-411.9,304.2-415.7,304.2z"/><path d="M-412,293.4c-0.4-0.4-1-0.4-1.4,0l-2.3,2.3l-2.3-2.3c-0.4-0.4-1-0.4-1.4,0s-0.4,1,0,1.4l2.3,2.3l-2.3,2.3   c-0.4,0.4-0.4,1,0,1.4c0.2,0.2,0.5,0.3,0.7,0.3s0.5-0.1,0.7-0.3l2.3-2.3l2.3,2.3c0.2,0.2,0.5,0.3,0.7,0.3s0.5-0.1,0.7-0.3   c0.4-0.4,0.4-1,0-1.4l-2.3-2.3l2.3-2.3C-411.6,294.4-411.6,293.8-412,293.4z"/></g><g><path d="M-305.1,301.4h-25.5c-0.4,0-0.7-0.3-0.7-0.7v-24.3c0-0.3,0.2-0.5,0.4-0.6l16,12.7c2.6,1.8,6,1.8,8.6-0.1l15.8-12.6   c0.2,0.1,0.4,0.3,0.4,0.6v12.1c0,0.6,0.4,1,1,1s1-0.4,1-1v-12.1c0-1.5-1.2-2.7-2.7-2.7h-39.8c-1.5,0-2.7,1.2-2.7,2.7v24.3   c0,1.5,1.2,2.7,2.7,2.7h25.5c0.6,0,1-0.4,1-1S-304.6,301.4-305.1,301.4z M-307.5,286.9c-1.9,1.3-4.4,1.3-6.2,0.1l-14-11.1h34.1   L-307.5,286.9z"/><path d="M-295.7,288.1c-5,0-9,4-9,9s4,9,9,9s9-4,9-9S-290.8,288.1-295.7,288.1z M-295.7,304.2c-3.9,0-7-3.2-7-7c0-3.9,3.2-7,7-7   c3.9,0,7,3.2,7,7C-288.7,301-291.9,304.2-295.7,304.2z"/><path d="M-291.4,296.1h-8.6c-0.6,0-1,0.4-1,1s0.4,1,1,1h8.6c0.6,0,1-0.4,1-1S-290.9,296.1-291.4,296.1z"/></g><g><path d="M-185.1,301.4h-25.5c-0.4,0-0.7-0.3-0.7-0.7v-24.3c0-0.3,0.2-0.5,0.4-0.6l16,12.7c2.6,1.8,6,1.8,8.6-0.1l15.8-12.6   c0.2,0.1,0.4,0.3,0.4,0.6v12.1c0,0.6,0.4,1,1,1s1-0.4,1-1v-12.1c0-1.5-1.2-2.7-2.7-2.7h-39.8c-1.5,0-2.7,1.2-2.7,2.7v24.3   c0,1.5,1.2,2.7,2.7,2.7h25.5c0.6,0,1-0.4,1-1S-184.6,301.4-185.1,301.4z M-187.5,286.9c-1.9,1.3-4.4,1.3-6.2,0.1l-14-11.1h34.1   L-187.5,286.9z"/><path d="M-168.8,291.4C-168.8,291.3-168.8,291.3-168.8,291.4C-168.8,291.3-168.8,291.3-168.8,291.4c-1.7-2-4.2-3.3-6.9-3.3   c-5,0-9,4-9,9c0,2.5,1,4.7,2.6,6.4c0,0,0,0,0,0s0,0,0,0c1.6,1.6,3.9,2.6,6.4,2.6c5,0,9-4,9-9C-166.7,294.9-167.5,292.9-168.8,291.4   z M-175.7,290.1c1.8,0,3.5,0.7,4.7,1.9l-10.3,9.4c-0.9-1.2-1.5-2.7-1.5-4.3C-182.8,293.3-179.6,290.1-175.7,290.1z M-175.7,304.2   c-1.5,0-3-0.5-4.1-1.4l10.1-9.3c0.6,1.1,1,2.3,1,3.6C-168.7,301-171.9,304.2-175.7,304.2z"/></g><g><path d="M-65.1,301.4h-25.5c-0.4,0-0.7-0.3-0.7-0.7v-24.3c0-0.3,0.2-0.5,0.4-0.6l16,12.7c2.6,1.8,6,1.8,8.6-0.1l15.8-12.6   c0.2,0.1,0.4,0.3,0.4,0.6v12.1c0,0.6,0.4,1,1,1s1-0.4,1-1v-12.1c0-1.5-1.2-2.7-2.7-2.7h-39.8c-1.5,0-2.7,1.2-2.7,2.7v24.3   c0,1.5,1.2,2.7,2.7,2.7h25.5c0.6,0,1-0.4,1-1S-64.6,301.4-65.1,301.4z M-67.5,286.9c-1.9,1.3-4.4,1.3-6.2,0.1l-14-11.1h34.1   L-67.5,286.9z"/><path d="M-55.7,288.1c-5,0-9,4-9,9s4,9,9,9s9-4,9-9S-50.8,288.1-55.7,288.1z M-55.7,304.2c-3.9,0-7-3.2-7-7c0-3.9,3.2-7,7-7   c3.9,0,7,3.2,7,7C-48.7,301-51.9,304.2-55.7,304.2z"/><path d="M-52.5,296.1h-2.3v-3.9c0-0.6-0.4-1-1-1s-1,0.4-1,1v4.9c0,0.6,0.4,1,1,1h3.3c0.6,0,1-0.4,1-1S-51.9,296.1-52.5,296.1z"/></g><g><path d="M54.9,301.4H29.4c-0.4,0-0.7-0.3-0.7-0.7v-24.3c0-0.3,0.2-0.5,0.4-0.6l16,12.7c2.6,1.8,6,1.8,8.6-0.1l15.8-12.6   c0.2,0.1,0.4,0.3,0.4,0.6v12.1c0,0.6,0.4,1,1,1s1-0.4,1-1v-12.1c0-1.5-1.2-2.7-2.7-2.7H29.4c-1.5,0-2.7,1.2-2.7,2.7v24.3   c0,1.5,1.2,2.7,2.7,2.7h25.5c0.6,0,1-0.4,1-1S55.4,301.4,54.9,301.4z M52.5,286.9c-1.9,1.3-4.4,1.3-6.2,0.1l-14-11.1h34.1   L52.5,286.9z"/><path d="M64.7,293.1v3c0,0.5,0.4,0.9,0.8,1c-0.5,0.1-0.8,0.5-0.8,1v0.1c0,0.6,0.4,1,1,1s1-0.4,1-1v-0.1c0-0.5-0.4-0.9-0.8-1   c0.5-0.1,0.8-0.5,0.8-1v-3c0-0.6-0.4-1-1-1S64.7,292.6,64.7,293.1z"/><path d="M75.1,300.3L67.5,287c-0.4-0.6-1-1-1.8-1s-1.4,0.4-1.8,1c0,0,0,0,0,0l-7.6,13.4c-0.4,0.6-0.4,1.4,0,2c0.4,0.6,1,1,1.8,1   h15.2c0.7,0,1.4-0.4,1.8-1C75.5,301.8,75.5,301,75.1,300.3z M58.1,301.3l7.6-13.4l-0.9-0.5l1,0.5l7.6,13.4L58.1,301.3z"/></g><g><path d="M174.9,301.4h-25.5c-0.4,0-0.7-0.3-0.7-0.7v-24.3c0-0.3,0.2-0.5,0.4-0.6l16,12.7c2.6,1.8,6,1.8,8.6-0.1l15.8-12.6   c0.2,0.1,0.4,0.3,0.4,0.6v12.1c0,0.6,0.4,1,1,1s1-0.4,1-1v-12.1c0-1.5-1.2-2.7-2.7-2.7h-39.8c-1.5,0-2.7,1.2-2.7,2.7v24.3   c0,1.5,1.2,2.7,2.7,2.7h25.5c0.6,0,1-0.4,1-1S175.4,301.4,174.9,301.4z M172.5,286.9c-1.9,1.3-4.4,1.3-6.2,0.1l-14-11.1h34.1   L172.5,286.9z"/><path d="M184.3,288.1c-5,0-9,4-9,9s4,9,9,9s9-4,9-9S189.2,288.1,184.3,288.1z M184.3,304.2c-3.9,0-7-3.2-7-7c0-3.9,3.2-7,7-7   c3.9,0,7,3.2,7,7C191.3,301,188.1,304.2,184.3,304.2z"/><path d="M186.7,297.1l-1.5,1.5v-5.2c0-0.6-0.4-1-1-1s-1,0.4-1,1v5.2l-1.4-1.4c-0.4-0.4-1-0.4-1.4,0s-0.4,1,0,1.4l3.1,3.1   c0.1,0.1,0.2,0.2,0.3,0.2c0.1,0.1,0.3,0.1,0.4,0.1s0.3,0,0.4-0.1c0.1-0.1,0.2-0.1,0.3-0.2l3.2-3.2c0.4-0.4,0.4-1,0-1.4   S187.1,296.7,186.7,297.1z"/></g><g><path d="M294.9,301.4h-25.5c-0.4,0-0.7-0.3-0.7-0.7v-24.3c0-0.3,0.2-0.5,0.4-0.6l16,12.7c2.6,1.8,6,1.8,8.6-0.1l15.8-12.6   c0.2,0.1,0.4,0.3,0.4,0.6v12.1c0,0.6,0.4,1,1,1s1-0.4,1-1v-12.1c0-1.5-1.2-2.7-2.7-2.7h-39.8c-1.5,0-2.7,1.2-2.7,2.7v24.3   c0,1.5,1.2,2.7,2.7,2.7h25.5c0.6,0,1-0.4,1-1S295.4,301.4,294.9,301.4z M292.5,286.9c-1.9,1.3-4.4,1.3-6.2,0.1l-14-11.1h34.1   L292.5,286.9z"/><path d="M304.3,288.1c-5,0-9,4-9,9s4,9,9,9s9-4,9-9S309.2,288.1,304.3,288.1z M304.3,304.2c-3.9,0-7-3.2-7-7c0-3.9,3.2-7,7-7   c3.9,0,7,3.2,7,7C311.3,301,308.1,304.2,304.3,304.2z"/><path d="M305,292.6c-0.1-0.1-0.2-0.2-0.3-0.2c-0.2-0.1-0.5-0.1-0.8,0c-0.1,0.1-0.2,0.1-0.3,0.2l-3.2,3.2c-0.4,0.4-0.4,1,0,1.4   c0.2,0.2,0.5,0.3,0.7,0.3s0.5-0.1,0.7-0.3l1.5-1.5v5.2c0,0.6,0.4,1,1,1s1-0.4,1-1v-5.2l1.4,1.4c0.2,0.2,0.5,0.3,0.7,0.3   s0.5-0.1,0.7-0.3c0.4-0.4,0.4-1,0-1.4L305,292.6z"/></g><g><path d="M-291.9,163.2c0-0.3-0.1-0.6-0.4-0.8l-4.3-3.5c-0.2-0.1-0.4-0.2-0.6-0.2h-4c-0.6,0-1,0.4-1,1s0.4,1,1,1h3.6l1.9,1.5h-7.5   v-5.7c0-3.6-2.9-6.5-6.5-6.5s-6.5,2.9-6.5,6.5v5.7h-7.5l1.9-1.5h3.6c0.6,0,1-0.4,1-1s-0.4-1-1-1h-4c-0.2,0-0.5,0.1-0.6,0.2   l-4.3,3.5c-0.2,0.2-0.4,0.5-0.4,0.8c0,0,0,0,0,0v20.9c0,0.6,0.4,1,1,1h33.4c0.6,0,1-0.4,1-1L-291.9,163.2   C-291.9,163.2-291.9,163.2-291.9,163.2z M-314.1,156.6c0-2.5,2-4.5,4.5-4.5s4.5,2,4.5,4.5v5.7h-8.9V156.6z M-293.9,183.1h-31.4   v-18.9h31.4V183.1z"/><path d="M-307.5,158.7h-4.2c-0.6,0-1,0.4-1,1s0.4,1,1,1h4.2c0.6,0,1-0.4,1-1S-307,158.7-307.5,158.7z"/></g><g><path d="M-206,158.5h27.9c0.6,0,1-0.4,1-1s-0.4-1-1-1H-206c-0.6,0-1,0.4-1,1S-206.5,158.5-206,158.5z"/><path d="M-206,163.5h22.4c0.6,0,1-0.4,1-1s-0.4-1-1-1H-206c-0.6,0-1,0.4-1,1S-206.5,163.5-206,163.5z"/><path d="M-174,166.5H-206c-0.6,0-1,0.4-1,1s0.4,1,1,1h31.9c0.6,0,1-0.4,1-1S-173.5,166.5-174,166.5z"/><path d="M-206,173.5h22.4c0.6,0,1-0.4,1-1s-0.4-1-1-1H-206c-0.6,0-1,0.4-1,1S-206.5,173.5-206,173.5z"/><path d="M-178.1,176.5H-206c-0.6,0-1,0.4-1,1s0.4,1,1,1h27.9c0.6,0,1-0.4,1-1S-177.5,176.5-178.1,176.5z"/><path d="M-196,181.5h-9.9c-0.6,0-1,0.4-1,1s0.4,1,1,1h9.9c0.6,0,1-0.4,1-1S-195.5,181.5-196,181.5z"/></g><g><path d="M-83.9,158.5h27.9c0.6,0,1-0.4,1-1s-0.4-1-1-1h-27.9c-0.6,0-1,0.4-1,1S-84.5,158.5-83.9,158.5z"/><path d="M-78.4,161.5c-0.6,0-1,0.4-1,1s0.4,1,1,1h16.8c0.6,0,1-0.4,1-1s-0.4-1-1-1H-78.4z"/><path d="M-51.2,166.5h-37.7c-0.6,0-1,0.4-1,1s0.4,1,1,1h37.7c0.6,0,1-0.4,1-1S-50.6,166.5-51.2,166.5z"/><path d="M-61.6,173.5c0.6,0,1-0.4,1-1s-0.4-1-1-1h-16.8c-0.6,0-1,0.4-1,1s0.4,1,1,1H-61.6z"/><path d="M-56.1,176.5h-27.9c-0.6,0-1,0.4-1,1s0.4,1,1,1h27.9c0.6,0,1-0.4,1-1S-55.5,176.5-56.1,176.5z"/><path d="M-61.6,181.5h-16.8c-0.6,0-1,0.4-1,1s0.4,1,1,1h16.8c0.6,0,1-0.4,1-1S-61,181.5-61.6,181.5z"/></g><g><path d="M38.1,158.5H66c0.6,0,1-0.4,1-1s-0.4-1-1-1H38.1c-0.6,0-1,0.4-1,1S37.5,158.5,38.1,158.5z"/><path d="M66,161.5H43.6c-0.6,0-1,0.4-1,1s0.4,1,1,1H66c0.6,0,1-0.4,1-1S66.5,161.5,66,161.5z"/><path d="M66,166.5H34c-0.6,0-1,0.4-1,1s0.4,1,1,1H66c0.6,0,1-0.4,1-1S66.5,166.5,66,166.5z"/><path d="M66,171.5H43.6c-0.6,0-1,0.4-1,1s0.4,1,1,1H66c0.6,0,1-0.4,1-1S66.5,171.5,66,171.5z"/><path d="M66,176.5H38.1c-0.6,0-1,0.4-1,1s0.4,1,1,1H66c0.6,0,1-0.4,1-1S66.5,176.5,66,176.5z"/><path d="M66,181.5H56c-0.6,0-1,0.4-1,1s0.4,1,1,1H66c0.6,0,1-0.4,1-1S66.5,181.5,66,181.5z"/></g><path d="M-526.8,402.3h-4.8V399c0-0.6-0.4-1-1-1h-28.6v-4.2c0-0.6-0.4-1-1-1h-11c-0.6,0-1,0.4-1,1v32.4c0,0.6,0.4,1,1,1h6.4h34.2  h5.8c0.6,0,1-0.4,1-1v-22.9C-525.8,402.7-526.3,402.3-526.8,402.3z M-572.2,394.8h9v4.2c0,0.6,0.4,1,1,1h28.6v2.3h-33.2  c-0.6,0-1,0.4-1,1v21.9h-4.4V394.8z M-527.8,425.2h-4.8h-33.2v-20.9h38V425.2z"/><g><path d="M-424.2,425.2h-21.6v-20.9h38v9.6c0,0.6,0.4,1,1,1s1-0.4,1-1v-10.6c0-0.6-0.4-1-1-1h-4.8V399c0-0.6-0.4-1-1-1h-28.6v-4.2   c0-0.6-0.4-1-1-1h-11c-0.6,0-1,0.4-1,1v32.4c0,0.6,0.4,1,1,1h29c0.6,0,1-0.4,1-1S-423.7,425.2-424.2,425.2z M-452.2,394.8h9v4.2   c0,0.6,0.4,1,1,1h28.6v2.3h-33.2c-0.6,0-1,0.4-1,1v21.9h-4.4V394.8z"/><path d="M-414.7,412.1c-5,0-9,4-9,9s4,9,9,9s9-4,9-9S-409.8,412.1-414.7,412.1z M-414.7,428.2c-3.9,0-7-3.2-7-7c0-3.9,3.2-7,7-7   c3.9,0,7,3.2,7,7C-407.7,425-410.9,428.2-414.7,428.2z"/><path d="M-410.4,420.1h-3.3v-3.3c0-0.6-0.4-1-1-1s-1,0.4-1,1v3.3h-3.3c-0.6,0-1,0.4-1,1s0.4,1,1,1h3.3v3.3c0,0.6,0.4,1,1,1   s1-0.4,1-1v-3.3h3.3c0.6,0,1-0.4,1-1S-409.9,420.1-410.4,420.1z"/></g><g><path d="M-304.2,425.2h-21.6v-20.9h38v9.6c0,0.6,0.4,1,1,1s1-0.4,1-1v-10.6c0-0.6-0.4-1-1-1h-4.8V399c0-0.6-0.4-1-1-1h-28.6v-4.2   c0-0.6-0.4-1-1-1h-11c-0.6,0-1,0.4-1,1v32.4c0,0.6,0.4,1,1,1h29c0.6,0,1-0.4,1-1S-303.7,425.2-304.2,425.2z M-332.2,394.8h9v4.2   c0,0.6,0.4,1,1,1h28.6v2.3h-33.2c-0.6,0-1,0.4-1,1v21.9h-4.4V394.8z"/><path d="M-294.7,412.1c-5,0-9,4-9,9s4,9,9,9s9-4,9-9S-289.8,412.1-294.7,412.1z M-294.7,428.2c-3.9,0-7-3.2-7-7c0-3.9,3.2-7,7-7   c3.9,0,7,3.2,7,7C-287.7,425-290.9,428.2-294.7,428.2z"/><path d="M-290.4,420.1h-8.6c-0.6,0-1,0.4-1,1s0.4,1,1,1h8.6c0.6,0,1-0.4,1-1S-289.9,420.1-290.4,420.1z"/></g><g><path d="M-184.2,425.2h-21.6v-20.9h38v9.6c0,0.6,0.4,1,1,1s1-0.4,1-1v-10.6c0-0.6-0.4-1-1-1h-4.8V399c0-0.6-0.4-1-1-1h-28.6v-4.2   c0-0.6-0.4-1-1-1h-11c-0.6,0-1,0.4-1,1v32.4c0,0.6,0.4,1,1,1h29c0.6,0,1-0.4,1-1S-183.7,425.2-184.2,425.2z M-212.2,394.8h9v4.2   c0,0.6,0.4,1,1,1h28.6v2.3h-33.2c-0.6,0-1,0.4-1,1v21.9h-4.4V394.8z"/><path d="M-168.3,414.7c-3.5-3.5-9.2-3.5-12.8,0c-3.5,3.5-3.5,9.2,0,12.8c1.8,1.8,4.1,2.6,6.4,2.6c2.3,0,4.6-0.9,6.4-2.6   C-164.8,424-164.8,418.3-168.3,414.7z M-169.8,426.1c-1.3,1.3-3.1,2.1-5,2.1c-1.9,0-3.6-0.7-5-2.1c-2.7-2.7-2.7-7.2,0-9.9   c1.4-1.4,3.2-2.1,5-2.1c1.8,0,3.6,0.7,5,2.1C-167,418.9-167,423.4-169.8,426.1z"/><path d="M-171,417.4c-0.4-0.4-1-0.4-1.4,0l-2.3,2.3l-2.3-2.3c-0.4-0.4-1-0.4-1.4,0s-0.4,1,0,1.4l2.3,2.3l-2.3,2.3   c-0.4,0.4-0.4,1,0,1.4c0.2,0.2,0.5,0.3,0.7,0.3s0.5-0.1,0.7-0.3l2.3-2.3l2.3,2.3c0.2,0.2,0.5,0.3,0.7,0.3s0.5-0.1,0.7-0.3   c0.4-0.4,0.4-1,0-1.4l-2.3-2.3l2.3-2.3C-170.6,418.4-170.6,417.8-171,417.4z"/></g><g><path d="M-64.2,425.2h-21.6v-20.9h38v9.6c0,0.6,0.4,1,1,1s1-0.4,1-1v-10.6c0-0.6-0.4-1-1-1h-4.8V399c0-0.6-0.4-1-1-1h-28.6v-4.2   c0-0.6-0.4-1-1-1h-11c-0.6,0-1,0.4-1,1v32.4c0,0.6,0.4,1,1,1h29c0.6,0,1-0.4,1-1S-63.7,425.2-64.2,425.2z M-92.2,394.8h9v4.2   c0,0.6,0.4,1,1,1h28.6v2.3h-33.2c-0.6,0-1,0.4-1,1v21.9h-4.4V394.8z"/><path d="M-48.3,414.7c-3.5-3.5-9.2-3.5-12.8,0c-3.5,3.5-3.5,9.2,0,12.8c1.8,1.8,4.1,2.6,6.4,2.6c2.3,0,4.6-0.9,6.4-2.6   C-44.8,424-44.8,418.3-48.3,414.7z M-59.7,416.2c1.4-1.4,3.2-2.1,5-2.1c1.7,0,3.5,0.6,4.8,1.9l-10.4,9.4   C-62.4,422.6-62.2,418.7-59.7,416.2z M-49.8,426.1c-1.3,1.3-3.1,2.1-5,2.1c-1.5,0-3-0.5-4.2-1.4l10.2-9.2   C-47.1,420.3-47.5,423.8-49.8,426.1z"/></g><g><path d="M55.8,425.2H34.2v-20.9h38v9.6c0,0.6,0.4,1,1,1s1-0.4,1-1v-10.6c0-0.6-0.4-1-1-1h-4.8V399c0-0.6-0.4-1-1-1H38.9v-4.2   c0-0.6-0.4-1-1-1h-11c-0.6,0-1,0.4-1,1v32.4c0,0.6,0.4,1,1,1h29c0.6,0,1-0.4,1-1S56.3,425.2,55.8,425.2z M27.8,394.8h9v4.2   c0,0.6,0.4,1,1,1h28.6v2.3H33.2c-0.6,0-1,0.4-1,1v21.9h-4.4V394.8z"/><path d="M66.3,413.1c-5,0-9,4-9,9s4,9,9,9s9-4,9-9S71.2,413.1,66.3,413.1z M66.3,429.2c-3.9,0-7-3.2-7-7c0-3.9,3.2-7,7-7   c3.9,0,7,3.2,7,7C73.3,426,70.1,429.2,66.3,429.2z"/><path d="M69.5,421.1h-2.3v-3.9c0-0.6-0.4-1-1-1s-1,0.4-1,1v4.9c0,0.6,0.4,1,1,1h3.3c0.6,0,1-0.4,1-1S70.1,421.1,69.5,421.1z"/></g><g><path d="M175.8,425.2h-21.6v-20.9h38v9.6c0,0.6,0.4,1,1,1s1-0.4,1-1v-10.6c0-0.6-0.4-1-1-1h-4.8V399c0-0.6-0.4-1-1-1h-28.6v-4.2   c0-0.6-0.4-1-1-1h-11c-0.6,0-1,0.4-1,1v32.4c0,0.6,0.4,1,1,1h29c0.6,0,1-0.4,1-1S176.3,425.2,175.8,425.2z M147.8,394.8h9v4.2   c0,0.6,0.4,1,1,1h28.6v2.3h-33.2c-0.6,0-1,0.4-1,1v21.9h-4.4V394.8z"/><path d="M186.7,419.1v3c0,0.5,0.4,0.9,0.8,1c-0.5,0.1-0.8,0.5-0.8,1v0.1c0,0.6,0.4,1,1,1s1-0.4,1-1v-0.1c0-0.5-0.4-0.9-0.8-1   c0.5-0.1,0.8-0.5,0.8-1v-3c0-0.6-0.4-1-1-1S186.7,418.6,186.7,419.1z"/><path d="M197.1,426.3l-7.6-13.4c-0.4-0.6-1-1-1.8-1s-1.4,0.4-1.8,1c0,0,0,0,0,0l-7.6,13.4c-0.4,0.6-0.4,1.4,0,2c0.4,0.6,1,1,1.8,1   h15.2c0.7,0,1.4-0.4,1.8-1C197.5,427.8,197.5,427,197.1,426.3z M180.1,427.3l7.6-13.4l-0.9-0.5l1,0.5l7.6,13.4L180.1,427.3z"/></g><g><path d="M414.9,301.4h-25.5c-0.4,0-0.7-0.3-0.7-0.7v-24.3c0-0.3,0.2-0.5,0.4-0.6l16,12.7c2.6,1.8,6,1.8,8.6-0.1l15.8-12.6   c0.2,0.1,0.4,0.3,0.4,0.6v12.1c0,0.6,0.4,1,1,1s1-0.4,1-1v-12.1c0-1.5-1.2-2.7-2.7-2.7h-39.8c-1.5,0-2.7,1.2-2.7,2.7v24.3   c0,1.5,1.2,2.7,2.7,2.7h25.5c0.6,0,1-0.4,1-1S415.4,301.4,414.9,301.4z M412.5,286.9c-1.9,1.3-4.4,1.3-6.2,0.1l-14-11.1h34.1   L412.5,286.9z"/><path d="M434.1,305.1l-3-3c2.7-3.4,2.5-8.4-0.7-11.6c-1.6-1.6-3.8-2.6-6.2-2.6s-4.5,0.9-6.2,2.6c-3.4,3.4-3.4,8.9,0,12.3   c1.6,1.6,3.8,2.6,6.2,2.6c2,0,3.9-0.7,5.4-1.9l3,3c0.2,0.2,0.5,0.3,0.7,0.3s0.5-0.1,0.7-0.3C434.5,306.1,434.5,305.5,434.1,305.1z    M419.5,301.4c-2.6-2.6-2.6-6.9,0-9.5c1.3-1.3,3-2,4.8-2c1.8,0,3.5,0.7,4.8,2c2.6,2.6,2.6,6.9,0,9.5c-1.3,1.3-3,2-4.8,2   C422.5,303.4,420.8,302.7,419.5,301.4z"/></g><g><path class="st0" d="M306.3,413.1c-5,0-9,4-9,9s4,9,9,9s9-4,9-9S311.2,413.1,306.3,413.1z M306.3,429.2c-3.9,0-7-3.2-7-7   c0-3.9,3.2-7,7-7c3.9,0,7,3.2,7,7C313.3,426,310.1,429.2,306.3,429.2z"/><path class="st0" d="M308.7,422.1l-1.5,1.5v-5.2c0-0.6-0.4-1-1-1s-1,0.4-1,1v5.2l-1.4-1.4c-0.4-0.4-1-0.4-1.4,0s-0.4,1,0,1.4   l3.1,3.1c0.1,0.1,0.2,0.2,0.3,0.2c0.1,0.1,0.3,0.1,0.4,0.1s0.3,0,0.4-0.1c0.1-0.1,0.2-0.1,0.3-0.2l3.2-3.2c0.4-0.4,0.4-1,0-1.4   S309.1,421.7,308.7,422.1z"/><path class="st0" d="M295.8,425.2h-21.6v-20.9h38v9.6c0,0.6,0.4,1,1,1s1-0.4,1-1v-10.6c0-0.6-0.4-1-1-1h-4.8V399c0-0.6-0.4-1-1-1   h-28.6v-4.2c0-0.6-0.4-1-1-1h-11c-0.6,0-1,0.4-1,1v32.4c0,0.6,0.4,1,1,1h29c0.6,0,1-0.4,1-1S296.3,425.2,295.8,425.2z M267.8,394.8   h9v4.2c0,0.6,0.4,1,1,1h28.6v2.3h-33.2c-0.6,0-1,0.4-1,1v21.9h-4.4V394.8z"/></g><g><g><path d="M426.3,431.2c-5,0-9-4-9-9s4-9,9-9s9,4,9,9S431.2,431.2,426.3,431.2z M426.3,415.1c-3.9,0-7,3.2-7,7c0,3.9,3.2,7,7,7    c3.9,0,7-3.2,7-7C433.3,418.3,430.1,415.1,426.3,415.1z"/></g><g><g><path d="M426.3,426.9c-0.6,0-1-0.4-1-1v-7.7c0-0.6,0.4-1,1-1s1,0.4,1,1v7.7C427.3,426.5,426.8,426.9,426.3,426.9z"/></g><g><path d="M429.4,422.4c-0.3,0-0.5-0.1-0.7-0.3l-3.1-3.1c-0.4-0.4-0.4-1,0-1.4s1-0.4,1.4,0l3.1,3.1c0.4,0.4,0.4,1,0,1.4     C429.9,422.3,429.7,422.4,429.4,422.4z"/></g><g><path d="M423.1,422.5c-0.3,0-0.5-0.1-0.7-0.3c-0.4-0.4-0.4-1,0-1.4l3.2-3.2c0.4-0.4,1-0.4,1.4,0s0.4,1,0,1.4l-3.2,3.2     C423.6,422.4,423.4,422.5,423.1,422.5z"/></g></g></g><g><g><path d="M415.8,427.2h-29c-0.6,0-1-0.4-1-1v-32.4c0-0.6,0.4-1,1-1h11c0.6,0,1,0.4,1,1v4.2h28.6c0.6,0,1,0.4,1,1v4.3    c0,0.6-0.4,1-1,1s-1-0.4-1-1V400h-28.6c-0.6,0-1-0.4-1-1v-4.2h-9v30.4h28c0.6,0,1,0.4,1,1S416.3,427.2,415.8,427.2z"/></g><g><path d="M393.2,427.2c-0.6,0-1-0.4-1-1v-22.9c0-0.6,0.4-1,1-1h40c0.6,0,1,0.4,1,1v10.6c0,0.6-0.4,1-1,1s-1-0.4-1-1v-9.6h-38v21.9    C394.2,426.7,393.7,427.2,393.2,427.2z"/></g><g><path class="st0" d="M431.5,426.2"/></g></g><g><path d="M535.8,425.2h-21.6v-20.9h38v9.6c0,0.6,0.4,1,1,1s1-0.4,1-1v-10.6c0-0.6-0.4-1-1-1h-4.8V399c0-0.6-0.4-1-1-1h-28.6v-4.2   c0-0.6-0.4-1-1-1h-11c-0.6,0-1,0.4-1,1v32.4c0,0.6,0.4,1,1,1h29c0.6,0,1-0.4,1-1S536.3,425.2,535.8,425.2z M507.8,394.8h9v4.2   c0,0.6,0.4,1,1,1h28.6v2.3h-33.2c-0.6,0-1,0.4-1,1v21.9h-4.4V394.8z"/><path d="M556.1,431.1l-3-3c2.7-3.4,2.5-8.4-0.7-11.6c-1.6-1.6-3.8-2.6-6.2-2.6s-4.5,0.9-6.2,2.6c-3.4,3.4-3.4,8.9,0,12.3   c1.6,1.6,3.8,2.6,6.2,2.6c2,0,3.9-0.7,5.4-1.9l3,3c0.2,0.2,0.5,0.3,0.7,0.3s0.5-0.1,0.7-0.3C556.5,432.1,556.5,431.5,556.1,431.1z    M541.5,427.4c-2.6-2.6-2.6-6.9,0-9.5c1.3-1.3,3-2,4.8-2c1.8,0,3.5,0.7,4.8,2c2.6,2.6,2.6,6.9,0,9.5c-1.3,1.3-3,2-4.8,2   C544.5,429.4,542.8,428.7,541.5,427.4z"/></g><polygon points="549.6,274.2 522.2,301.6 510.4,289.8 508.3,292 520,303.7 522.2,305.8 524.3,303.7 551.7,276.3 "/><text x="0" y="115" fill="#000000" font-size="5px" font-weight="bold" font-family="'Helvetica Neue', Helvetica, Arial-Unicode, Arial, Sans-serif">Created by Rajesh Rajput</text><text x="0" y="120" fill="#000000" font-size="5px" font-weight="bold" font-family="'Helvetica Neue', Helvetica, Arial-Unicode, Arial, Sans-serif">from the Noun Project</text></svg>