<svg xmlns="http://www.w3.org/2000/svg" viewBox="0 0 100 125" x="0px" y="0px"><title>multimedia 2</title><g data-name="Capa 2"><path d="M37,60.2H72.88a7.4,7.4,0,0,0,7.39-7.39V37.55a.12.12,0,0,0,0-.08s0-.07,0-.09,0-.06,0-.08a.29.29,0,0,1,0-.1.26.26,0,0,0,0-.08s0,0,0-.08a.25.25,0,0,1,0-.09l0-.07,0-.08a.25.25,0,0,1,0-.07l-.06-.08-.05-.06s0,0-.06-.07,0,0,0-.07,0,0,0-.05l-.07-.07s0,0-.07,0l-.08-.06-.06,0a.14.14,0,0,1-.08,0l-.16-.08-.08,0A.32.32,0,0,1,79,36l-.09,0-.07,0h-.16L33.22,29.64V23.29a1.21,1.21,0,0,0,0-.19.13.13,0,0,0,0-.05s0-.08,0-.12,0-.07,0-.11,0,0,0-.06l0-.12s0,0,0-.06a.47.47,0,0,0-.05-.1s0,0,0-.06l0-.08a.25.25,0,0,1,0-.07.21.21,0,0,1,0-.06l-.06-.08L32.7,22l0,0a.34.34,0,0,0-.09-.08l-.06,0s0,0-.08-.07l-.1-.07,0,0-.18-.08-9.86-4.15a1.81,1.81,0,1,0-1.41,3.33l8.76,3.69v39.6A7.4,7.4,0,0,0,36,71.41a7.29,7.29,0,1,0,13.55,3.74,7.2,7.2,0,0,0-1-3.68H64.83a7.29,7.29,0,1,0,6.29-3.61H37a3.78,3.78,0,0,1-3.78-3.78v-4.9a7.42,7.42,0,0,0,3.78,1Zm9,14.94a3.68,3.68,0,1,1-3.68-3.68A3.68,3.68,0,0,1,46,75.14Zm28.84,0a3.68,3.68,0,1,1-3.68-3.68,3.68,3.68,0,0,1,3.68,3.68ZM72.88,56.59H37a3.78,3.78,0,0,1-3.78-3.78V33.28l43.44,6V52.8a3.78,3.78,0,0,1-3.77,3.79Zm0,0"/></g><text x="0" y="115" fill="#000000" font-size="5px" font-weight="bold" font-family="'Helvetica Neue', Helvetica, Arial-Unicode, Arial, Sans-serif">Created by Luis Jose Doria Correa</text><text x="0" y="120" fill="#000000" font-size="5px" font-weight="bold" font-family="'Helvetica Neue', Helvetica, Arial-Unicode, Arial, Sans-serif">from the Noun Project</text></svg>